<?xml version="1.0" encoding="UTF-8"?>
<svg width="866px" height="967px" viewBox="0 0 866 967" version="1.1" xmlns="http://www.w3.org/2000/svg" xmlns:xlink="http://www.w3.org/1999/xlink">
    <title>headphones-colour</title>
    <defs>
        <path d="M56,392 L65,437.08" id="path-1"></path>
        <filter x="-136.8%" y="-22.9%" width="373.6%" height="154.6%" filterUnits="objectBoundingBox" id="filter-2">
            <feMorphology radius="4.515" operator="dilate" in="SourceAlpha" result="shadowSpreadOuter1"></feMorphology>
            <feOffset dx="0" dy="2" in="shadowSpreadOuter1" result="shadowOffsetOuter1"></feOffset>
            <feMorphology radius="4.515" operator="erode" in="SourceAlpha" result="shadowInner"></feMorphology>
            <feOffset dx="0" dy="2" in="shadowInner" result="shadowInner"></feOffset>
            <feComposite in="shadowOffsetOuter1" in2="shadowInner" operator="out" result="shadowOffsetOuter1"></feComposite>
            <feGaussianBlur stdDeviation="2" in="shadowOffsetOuter1" result="shadowBlurOuter1"></feGaussianBlur>
            <feColorMatrix values="0 0 0 0 0   0 0 0 0 0   0 0 0 0 0  0 0 0 0.5 0" type="matrix" in="shadowBlurOuter1"></feColorMatrix>
        </filter>
        <polygon id="path-3" points="62.52 410.24 78 407.14 89.88 466.48 74.4 469.57"></polygon>
        <filter x="-25.6%" y="-8.0%" width="151.2%" height="122.4%" filterUnits="objectBoundingBox" id="filter-4">
            <feOffset dx="0" dy="2" in="SourceAlpha" result="shadowOffsetOuter1"></feOffset>
            <feGaussianBlur stdDeviation="2" in="shadowOffsetOuter1" result="shadowBlurOuter1"></feGaussianBlur>
            <feColorMatrix values="0 0 0 0 0   0 0 0 0 0   0 0 0 0 0  0 0 0 0.5 0" type="matrix" in="shadowBlurOuter1"></feColorMatrix>
        </filter>
        <path d="M146.46,363.46 C145.556979,358.986664 142.530333,355.234204 138.349566,353.404621 C134.168799,351.575037 129.358679,351.897979 125.46,354.27 C96.3781451,372.390724 81.5749695,406.640907 88.3035172,440.239145 C95.0320649,473.837382 121.882883,499.745732 155.7,505.27 C160.221632,505.976863 164.8033,504.429071 167.969926,501.124938 C171.136553,497.820806 172.488311,493.177522 171.59,488.69 L146.46,363.46 Z" id="path-5"></path>
        <filter x="-8.2%" y="-3.3%" width="116.4%" height="109.1%" filterUnits="objectBoundingBox" id="filter-6">
            <feOffset dx="0" dy="2" in="SourceAlpha" result="shadowOffsetOuter1"></feOffset>
            <feGaussianBlur stdDeviation="2" in="shadowOffsetOuter1" result="shadowBlurOuter1"></feGaussianBlur>
            <feColorMatrix values="0 0 0 0 0   0 0 0 0 0   0 0 0 0 0  0 0 0 0.5 0" type="matrix" in="shadowBlurOuter1"></feColorMatrix>
        </filter>
        <path d="M455.3,312.05 L464.3,357.14" id="path-7"></path>
        <filter x="-136.8%" y="-22.9%" width="373.6%" height="154.6%" filterUnits="objectBoundingBox" id="filter-8">
            <feMorphology radius="4.515" operator="dilate" in="SourceAlpha" result="shadowSpreadOuter1"></feMorphology>
            <feOffset dx="0" dy="2" in="shadowSpreadOuter1" result="shadowOffsetOuter1"></feOffset>
            <feMorphology radius="4.515" operator="erode" in="SourceAlpha" result="shadowInner"></feMorphology>
            <feOffset dx="0" dy="2" in="shadowInner" result="shadowInner"></feOffset>
            <feComposite in="shadowOffsetOuter1" in2="shadowInner" operator="out" result="shadowOffsetOuter1"></feComposite>
            <feGaussianBlur stdDeviation="2" in="shadowOffsetOuter1" result="shadowBlurOuter1"></feGaussianBlur>
            <feColorMatrix values="0 0 0 0 0   0 0 0 0 0   0 0 0 0 0  0 0 0 0.5 0" type="matrix" in="shadowBlurOuter1"></feColorMatrix>
        </filter>
        <polygon id="path-9" points="456.34 331.38 440.34 334.58 452.22 393.92 468.22 390.71"></polygon>
        <filter x="-25.1%" y="-8.0%" width="150.2%" height="122.4%" filterUnits="objectBoundingBox" id="filter-10">
            <feOffset dx="0" dy="2" in="SourceAlpha" result="shadowOffsetOuter1"></feOffset>
            <feGaussianBlur stdDeviation="2" in="shadowOffsetOuter1" result="shadowBlurOuter1"></feGaussianBlur>
            <feColorMatrix values="0 0 0 0 0   0 0 0 0 0   0 0 0 0 0  0 0 0 0.5 0" type="matrix" in="shadowBlurOuter1"></feColorMatrix>
        </filter>
        <path d="M360.78,320.2 C359.890478,315.784791 361.21804,311.213744 364.334285,307.961924 C367.45053,304.710103 371.960933,303.189198 376.41,303.89 C410.388936,309.280752 437.424028,335.247744 444.179336,368.981912 C450.934645,402.71608 435.983084,437.090951 406.7,455.15 C402.86894,457.507454 398.127464,457.843485 394.002217,456.0499 C389.876971,454.256314 386.888865,450.559595 386,446.15 L360.78,320.2 Z" id="path-11"></path>
        <filter x="-8.2%" y="-3.3%" width="116.4%" height="109.1%" filterUnits="objectBoundingBox" id="filter-12">
            <feOffset dx="0" dy="2" in="SourceAlpha" result="shadowOffsetOuter1"></feOffset>
            <feGaussianBlur stdDeviation="2" in="shadowOffsetOuter1" result="shadowBlurOuter1"></feGaussianBlur>
            <feColorMatrix values="0 0 0 0 0   0 0 0 0 0   0 0 0 0 0  0 0 0 0.5 0" type="matrix" in="shadowBlurOuter1"></feColorMatrix>
        </filter>
        <polygon id="path-13" points="73.67 400.33 90.58 396.94 107.19 479.89 90.28 483.28"></polygon>
        <filter x="-20.9%" y="-5.8%" width="141.8%" height="116.2%" filterUnits="objectBoundingBox" id="filter-14">
            <feOffset dx="0" dy="2" in="SourceAlpha" result="shadowOffsetOuter1"></feOffset>
            <feGaussianBlur stdDeviation="2" in="shadowOffsetOuter1" result="shadowBlurOuter1"></feGaussianBlur>
            <feColorMatrix values="0 0 0 0 0   0 0 0 0 0   0 0 0 0 0  0 0 0 0.5 0" type="matrix" in="shadowBlurOuter1"></feColorMatrix>
        </filter>
        <polygon id="path-15" points="442.22 326.52 425.32 329.91 441.93 412.86 458.84 409.47"></polygon>
        <filter x="-20.9%" y="-5.8%" width="141.8%" height="116.2%" filterUnits="objectBoundingBox" id="filter-16">
            <feOffset dx="0" dy="2" in="SourceAlpha" result="shadowOffsetOuter1"></feOffset>
            <feGaussianBlur stdDeviation="2" in="shadowOffsetOuter1" result="shadowBlurOuter1"></feGaussianBlur>
            <feColorMatrix values="0 0 0 0 0   0 0 0 0 0   0 0 0 0 0  0 0 0 0.5 0" type="matrix" in="shadowBlurOuter1"></feColorMatrix>
        </filter>
        <path d="M623.9,300.64 L623.9,310.64 C624.464812,310.64 625.028008,310.700342 625.58,310.82 L778.58,343.2 C784.58,344.47 788.14,352.35 786.44,360.41 L712.61,709.28 C711.07,716.54 705.71,722.01 700.14,722.01 C699.575188,722.01 699.011992,721.949658 698.46,721.83 L545.46,689.45 C541.93,688.7 539.92,685.82 539.04,684.18 C537.190221,680.48713 536.684585,676.265242 537.61,672.24 L611.44,323.37 C612.98,316.12 618.34,310.64 623.91,310.64 L623.91,300.64 M623.91,300.64 C613.75,300.64 604.23,309.17 601.66,321.3 L527.81,670.17 C524.93,683.79 531.9,696.8 543.38,699.23 L696.38,731.62 C697.613392,731.877781 698.869958,732.01 700.13,732.01 C710.29,732.01 719.81,723.49 722.38,711.35 L796.22,362.48 C799.1,348.86 792.13,335.85 780.65,333.42 L627.66,301 C626.42434,300.734069 625.163952,300.6 623.9,300.6 L623.91,300.64 Z" id="path-17"></path>
        <filter x="-2.6%" y="-1.2%" width="105.2%" height="103.2%" filterUnits="objectBoundingBox" id="filter-18">
            <feOffset dx="0" dy="2" in="SourceAlpha" result="shadowOffsetOuter1"></feOffset>
            <feGaussianBlur stdDeviation="2" in="shadowOffsetOuter1" result="shadowBlurOuter1"></feGaussianBlur>
            <feColorMatrix values="0 0 0 0 0   0 0 0 0 0   0 0 0 0 0  0 0 0 0.5 0" type="matrix" in="shadowBlurOuter1"></feColorMatrix>
        </filter>
    </defs>
    <g id="Page-1" stroke="none" stroke-width="1" fill="none" fill-rule="evenodd">
        <g id="headphones-colour">
            <path d="M405.69,6.32 C519.93,-26.56 675.44,73.23 764.51,205.43 C853.58,337.63 876.19,502.43 820,609.48 C764,716.73 629.51,766.39 497.78,834.7 C366.05,903.01 237.35,989.7 144.33,960.83 C51.31,931.96 -5.82,787.37 0.47,669.63 C6.53,551.89 76.25,461.43 147.36,333.19 C218.7,205 291.44,39.42 405.69,6.32 Z" id="Path" fill="#139B6B" fill-rule="nonzero"></path>
            <path d="M99,479.86 C99,538.29 148.89,554.06 148.89,611.34 C148.89,670.44 124.35,701.6 124.35,739.34 C124.35,821.03 192.01,892.28 275.81,892.28 C356.02,892.28 420.24,822.05 420.24,736.38 C420.24,661.74 392.47,665.88 411.35,590.1 C437.82,483.9 515.76,440.36 640.54,440.36 C796.47,440.36 858.07,578.36 858.07,683.64 C858.07,847.71 731.36,926.7 648.87,899.18 C492.87,847.18 541.09,691.57 593,649.18" id="Path" stroke="#D1AA33" stroke-width="15.06" stroke-linecap="round" stroke-linejoin="round"></path>
            <g id="Path" stroke-linecap="round" stroke-linejoin="round">
                <use fill="black" fill-opacity="1" filter="url(#filter-2)" xlink:href="#path-1"></use>
                <use stroke="#F5726E" stroke-width="9.03" xlink:href="#path-1"></use>
            </g>
            <g id="Path">
                <use fill="black" fill-opacity="1" filter="url(#filter-4)" xlink:href="#path-3"></use>
                <use fill="#D1AA33" fill-rule="evenodd" xlink:href="#path-3"></use>
            </g>
            <g id="Path">
                <use fill="black" fill-opacity="1" filter="url(#filter-6)" xlink:href="#path-5"></use>
                <use fill="#6FD4DF" fill-rule="evenodd" xlink:href="#path-5"></use>
            </g>
            <g id="Path" stroke-linecap="round" stroke-linejoin="round">
                <use fill="black" fill-opacity="1" filter="url(#filter-8)" xlink:href="#path-7"></use>
                <use stroke="#F5726E" stroke-width="9.03" xlink:href="#path-7"></use>
            </g>
            <g id="Path">
                <use fill="black" fill-opacity="1" filter="url(#filter-10)" xlink:href="#path-9"></use>
                <use fill="#D1AA33" fill-rule="evenodd" xlink:href="#path-9"></use>
            </g>
            <g id="Path">
                <use fill="black" fill-opacity="1" filter="url(#filter-12)" xlink:href="#path-11"></use>
                <use fill="#6FD4DF" fill-rule="evenodd" xlink:href="#path-11"></use>
            </g>
            <g id="Path">
                <use fill="black" fill-opacity="1" filter="url(#filter-14)" xlink:href="#path-13"></use>
                <use fill="#F5726E" fill-rule="evenodd" xlink:href="#path-13"></use>
            </g>
            <g id="Path">
                <use fill="black" fill-opacity="1" filter="url(#filter-16)" xlink:href="#path-15"></use>
                <use fill="#F5726E" fill-rule="evenodd" xlink:href="#path-15"></use>
            </g>
            <path d="M53.19,380.68 C31.12,270.46 102.58,163.2 212.81,141.13 C323.04,119.06 430.29,190.52 452.36,300.75" id="Path" stroke="#6FD4DF" stroke-width="26.35" stroke-linecap="round" stroke-linejoin="round"></path>
            <path d="M700.14,727 C699.225694,727 698.314051,726.901394 697.42,726.71 L544.42,694.33 C535.66,692.48 530.42,682.1 532.71,671.2 L606.55,322.32 C608.55,312.81 616.03,305.63 623.91,305.63 C624.824279,305.63 625.735869,305.729111 626.63,305.92 L779.63,338.3 C788.39,340.16 793.63,350.53 791.34,361.43 L717.5,710.32 C715.49,719.83 708,727 700.14,727 Z" id="Path" fill="#69D5D7"></path>
            <g id="Shape" fill-rule="nonzero">
                <use fill="black" fill-opacity="1" filter="url(#filter-18)" xlink:href="#path-17"></use>
                <use fill="#252525" xlink:href="#path-17"></use>
            </g>
            <polygon id="Path" fill="#252525" points="663.09 316.54 665.81 334.54 734.63 349.1 745.23 333.87"></polygon>
            <line x1="587.22" y1="684.62" x2="660.6" y2="700.15" id="Path" stroke="#252525" stroke-width="7.87" stroke-linecap="round" stroke-linejoin="round"></line>
            <g id="Group" transform="translate(593.000000, 397.000000)">
                <g id="Winston-Logo" transform="translate(75.000000, 103.278689) rotate(12.000000) translate(-75.000000, -103.278689) ">
                    <rect id="Rectangle" stroke="#DB615E" fill="#DB615E" x="21.647541" y="163.286885" width="19.1639344" height="42.2786885" rx="9.58196721"></rect>
                    <path d="M21.8852459,160.827869 C23.4447713,160.827869 24.8566565,161.459991 25.8786604,162.481995 C26.9006643,163.503999 27.5327869,164.915884 27.5327869,166.47541 L27.5327869,166.47541 L27.5327869,199.42623 C27.5327869,200.985755 26.9006643,202.39764 25.8786604,203.419644 C24.8566565,204.441648 23.4447713,205.07377 21.8852459,205.07377 C20.3257205,205.07377 18.9138353,204.441648 17.8918314,203.419644 C16.8698275,202.39764 16.2377049,200.985755 16.2377049,199.42623 L16.2377049,199.42623 L16.2377049,166.47541 C16.2377049,164.915884 16.8698275,163.503999 17.8918314,162.481995 C18.9138353,161.459991 20.3257205,160.827869 21.8852459,160.827869 Z" id="Rectangle" stroke="#DB615E" fill="#DB615E" transform="translate(21.885246, 182.950820) rotate(-17.000000) translate(-21.885246, -182.950820) "></path>
                    <rect id="Rectangle" stroke="#DB615E" fill="#DB615E" transform="translate(118.278689, 184.426230) scale(-1, -1) translate(-118.278689, -184.426230) " x="108.696721" y="163.286885" width="19.1639344" height="42.2786885" rx="9.58196721"></rect>
                    <path d="M127.622951,160.827869 C129.182476,160.827869 130.594361,161.459991 131.616365,162.481995 C132.638369,163.503999 133.270492,164.915884 133.270492,166.47541 L133.270492,166.47541 L133.270492,199.42623 C133.270492,200.985755 132.638369,202.39764 131.616365,203.419644 C130.594361,204.441648 129.182476,205.07377 127.622951,205.07377 C126.063425,205.07377 124.65154,204.441648 123.629536,203.419644 C122.607532,202.39764 121.97541,200.985755 121.97541,199.42623 L121.97541,199.42623 L121.97541,166.47541 C121.97541,164.915884 122.607532,163.503999 123.629536,162.481995 C124.65154,161.459991 126.063425,160.827869 127.622951,160.827869 Z" id="Rectangle" stroke="#DB615E" fill="#DB615E" transform="translate(127.622951, 182.950820) scale(-1, 1) rotate(-17.000000) translate(-127.622951, -182.950820) "></path>
                    <circle id="Oval" stroke="#F2BA35" fill="#F2BA35" cx="74.7540984" cy="36.8852459" r="36.3852459"></circle>
                    <circle id="Oval" stroke="#FEC844" fill="#FEC844" cx="75.2459016" cy="36.8852459" r="28.5163934"></circle>
                    <ellipse id="Oval" stroke="#E88582" fill="#E88582" cx="75" cy="132.295082" rx="74.5" ry="69.3360656"></ellipse>
                    <ellipse id="Oval" stroke="#DB615E" fill="#DB615E" cx="75.2459016" cy="144.098361" rx="28.5163934" ry="21.1393443"></ellipse>
                    <path d="M43.4013267,69.064766 C63.360575,60.4236814 86.389841,60.4236814 106.349089,69.064766 L106.349089,69.064766 L105.405426,70.9499189 C86.0448868,62.5651829 63.7055292,62.5651829 44.3449899,70.9499189 L44.3449899,70.9499189 Z" id="Path" stroke="#DB615E" stroke-width="0.25" fill="#DB615E"></path>
                    <ellipse id="Oval" stroke="#000000" fill="#000000" cx="55.8196721" cy="101.803279" rx="5.64754098" ry="13.2704918"></ellipse>
                    <ellipse id="Oval" stroke="#000000" fill="#000000" cx="93.6885246" cy="101.803279" rx="5.64754098" ry="13.2704918"></ellipse>
                    <ellipse id="Oval" stroke="#000000" fill="#000000" cx="64.6721311" cy="142.622951" rx="2.20491803" ry="4.41803279"></ellipse>
                    <ellipse id="Oval" stroke="#000000" fill="#000000" cx="87.7868852" cy="142.622951" rx="2.20491803" ry="4.41803279"></ellipse>
                    <path d="M9.07589343,98.9359513 C5.76180204,84.8312191 3.09904792,73.7713986 8.48776398,59.8113597 C12.9256286,48.3146019 35.6390933,70.7256678 37.4893317,73.949498 C38.2212476,75.2247783 35.3465964,76.005268 34.0728343,76.7398226 C31.0723757,78.4701307 27.388635,79.074088 24.737616,81.3031724 C19.2871159,85.8861743 14.9915297,91.6887981 10.1184865,96.881611 L9.07589343,98.9359513 Z" id="Path" stroke="#E88582" fill="#E88582"></path>
                    <path d="M115.797205,98.9359513 C112.483114,84.8312191 109.820359,73.7713986 115.209075,59.8113597 C119.64694,48.3146019 142.360405,70.7256678 144.210643,73.949498 C144.942559,75.2247783 142.067908,76.005268 140.794146,76.7398226 C137.793687,78.4701307 134.109946,79.074088 131.458928,81.3031724 C126.008427,85.8861743 121.712841,91.6887981 116.839798,96.881611 L115.797205,98.9359513 Z" id="Path" stroke="#E88582" fill="#E88582" transform="translate(128.229668, 77.746664) scale(-1, 1) translate(-128.229668, -77.746664) "></path>
                </g>
            </g>
        </g>
    </g>
</svg>