<svg xmlns="http://www.w3.org/2000/svg" version="1.1" xmlns:xlink="http://www.w3.org/1999/xlink" xmlns:svgjs="http://svgjs.dev/svgjs" width="1000" height="1000" viewBox="0 0 1000 1000"><rect width="1000" height="1000" fill="#000000"></rect><g transform="matrix(0.7,0,0,0.7,149.7081494931689,219.87700404858305)"><svg viewBox="0 0 308 247" data-background-color="#ffffff" preserveAspectRatio="xMidYMid meet" height="801" width="1000" xmlns="http://www.w3.org/2000/svg" xmlns:xlink="http://www.w3.org/1999/xlink"><g id="tight-bounds" transform="matrix(1,0,0,1,0.12841422300567729,-0.09999999999999432)"><svg viewBox="0 0 307.74317155398865 247.2" height="247.2" width="307.74317155398865"><g><svg viewBox="0 0 395.52 317.7082484276905" height="247.2" width="307.74317155398865"><g transform="matrix(1,0,0,1,0,236.39060136886698)"><svg viewBox="0 0 395.52 81.31764705882351" height="81.31764705882351" width="395.52"><g id="textblocktransform"><svg viewBox="0 0 395.52 81.31764705882351" height="81.31764705882351" width="395.52" id="textblock"><g><svg viewBox="0 0 395.52 81.31764705882351" height="81.31764705882351" width="395.52"><g transform="matrix(1,0,0,1,0,0)"><svg width="395.52" viewBox="-0.8500000238418579 -31.25 175.0800018310547 36" height="81.31764705882351" data-palette-color="#89939e"><path d="M39.55-21.4L39.55-21.4Q37.7-20.65 36.38-20.65 35.05-20.65 35.05-21.2L35.05-21.2Q35.05-21.55 36.52-21.6 38-21.65 38.65-21.95L38.65-21.95Q40.55-22.95 40.55-24.9L40.55-24.9Q40.55-25.9 40-27L40-27Q38.4-29.85 32.25-29.85L32.25-29.85Q28.7-29.85 25.15-28.78 21.6-27.7 19.2-25.48 16.8-23.25 16.8-21.35L16.8-21.35Q16.8-18.45 22.55-17.1L22.55-17.1 28.45-16Q32-15.35 33.75-14.2L33.75-14.2Q36.05-12.8 36.05-10.2L36.05-10.2Q36.05-9.15 35.7-7.95L35.7-7.95Q34.1-2.55 27.45 0.3L27.45 0.3Q21.9 2.75 14.35 2.75L14.35 2.75Q12.2 2.75 10.6 2.55L10.6 2.55Q12.2 3.45 14.8 4.1L14.8 4.1Q15 4.15 15 4.3L15 4.3Q15 4.75 13.95 4.75L13.95 4.75Q11.9 4.75 8.85 2.3L8.85 2.3Q4.7 1.65 2.65 0L2.65 0Q1.35-1.05 0.25-3.1-0.85-5.15-0.85-6.8-0.85-8.45-0.2-9.55L-0.2-9.55Q1.3-12.2 3.6-12.2L3.6-12.2Q5.35-12.2 5.65-9.25L5.65-9.25Q6.35-3.55 6.6-2.75L6.6-2.75Q7.35-0.3 9.15 1.4L9.15 1.4Q11.25 1.85 13.7 1.85L13.7 1.85Q19.1 1.85 24.3-0.3 29.5-2.45 31.8-6.4L31.8-6.4Q32.75-7.95 32.75-9.15L32.75-9.15Q32.75-11.5 28.6-12.8L28.6-12.8 19.8-14.8Q17.1-15.45 15.48-16.95 13.85-18.45 13.85-20.4L13.85-20.4Q13.85-23.4 17.6-26.4L17.6-26.4Q20.45-28.7 24.58-29.98 28.7-31.25 32.68-31.25 36.65-31.25 39.25-30.1L39.25-30.1Q42.6-28.55 42.6-25.58 42.6-22.6 39.55-21.4ZM7.35 0.9L7.35 0.9Q4.45-2.3 3.65-7.85L3.65-7.85Q3.2-11 2.8-11 2.4-11 2.05-10.78 1.7-10.55 1.35-9.8 1-9.05 1-7.85L1-7.85Q1-4 3.7-1.25L3.7-1.25Q5.05 0.15 7.35 0.9ZM41.2 0.65L41.2 0.65Q40.65 0.65 40.2 0.5L40.2 0.5Q37-0.4 37-3.1L37-3.1Q37-6.6 41.4-11.2 45.8-15.8 49.3-15.8L49.3-15.8Q50.45-15.8 51.17-15.18 51.9-14.55 51.9-13.48 51.9-12.4 51.25-11.23 50.6-10.05 49.3-10.05 48-10.05 48-10.85L48-10.85Q48-11.4 48.67-12.53 49.35-13.65 49.35-13.73 49.35-13.8 49.2-13.8L49.2-13.8Q47.8-13.65 45.37-11.8 42.95-9.95 42.05-8.7L42.05-8.7 40.1-5.85Q39.6-5.05 39.37-3.95 39.15-2.85 39.15-2.3 39.15-1.75 39.77-1.05 40.4-0.35 41.55-0.35L41.55-0.35Q44.05-0.35 47.75-3.28 51.45-6.2 53.45-8.85L53.45-8.85Q53.7-9.15 54.05-9.15 54.4-9.15 54.4-8.95 54.4-8.75 54.15-8.45L54.15-8.45Q51.4-4.8 47.57-2.08 43.75 0.65 41.2 0.65ZM61.75 0.25L61.75 0.25Q58 0.25 58-3.9L58-3.9Q58-6 59.09-8.5 60.2-11 61.5-12.7L61.5-12.7Q61.25-12.65 60.84-12.65L60.84-12.65Q59.65-12.65 58.84-14.35L58.84-14.35 55.15-9.55Q52.05-5.7 51.55-5.7L51.55-5.7Q51.3-5.7 51.3-5.9L51.3-5.9Q51.3-6.4 52.15-7.35L52.15-7.35Q56.5-12.4 58.3-15.9L58.3-15.9Q59.45-20.25 61.2-20.25L61.2-20.25Q62.34-20.25 62.34-19.25 62.34-18.25 61.09-16.7L61.09-16.7 59.9-15.1Q59.9-14.05 61.45-14.05L61.45-14.05Q62.34-14.05 63.45-14.7L63.45-14.7 64.75-15.5Q64.84-15.55 65.25-15.55 65.65-15.55 66.09-15.05 66.55-14.55 66.4-14.15L66.4-14.15 62.95-9.8Q59.75-5.7 59.75-3.33 59.75-0.95 61.95-0.95L61.95-0.95Q64.25-0.95 67.59-3.4L67.59-3.4Q69.59-4.85 71.25-6.65L71.25-6.65Q72.8-8.45 72.95-8.45L72.95-8.45Q73.3-8.45 73.3-8.08 73.3-7.7 72.84-7.2L72.84-7.2 71.25-5.4Q69.9-4 68.25-2.7L68.25-2.7Q64.3 0.25 61.75 0.25ZM87.84-14.95L87.84-14.95 88.54-15.1Q89.09-15.1 89.59-14.65 90.09-14.2 90.09-13.95 90.09-13.7 86.99-9.13 83.89-4.55 83.89-2.75L83.89-2.75Q83.89-2.6 83.94-2.45L83.94-2.45Q84.19-1.3 85.04-1.3L85.04-1.3Q87.64-1.3 94.54-9.9L94.54-9.9Q94.69-10.1 94.89-10.1 95.09-10.1 95.09-9.73 95.09-9.35 94.64-8.75L94.64-8.75Q88.24-0.2 84.89-0.2L84.89-0.2Q84.44-0.2 84.04-0.35L84.04-0.35Q81.84-1.2 81.84-3.65L81.84-3.65Q81.84-4.5 82.04-5.35L82.04-5.35 78.94-2.35Q75.99 0.25 74.67 0.25 73.34 0.25 72.14-0.6L72.14-0.6Q70.79-1.6 70.79-3.25L70.79-3.25Q70.79-6.9 75.89-11.98 80.99-17.05 85.24-17.05L85.24-17.05Q86.89-17.05 87.44-15.9L87.44-15.9Q87.59-15.5 87.69-15.23 87.79-14.95 87.84-14.95ZM72.89-2.65L72.89-2.65Q72.89-0.85 74.14-0.85L74.14-0.85Q77.04-0.85 82.04-7.2L82.04-7.2 87.34-14.5Q86.94-15.2 86.04-15.2L86.04-15.2Q82.99-15.2 77.94-10.48 72.89-5.75 72.89-2.65ZM104.89-16.1L104.89-16.1 112.09-16.2Q112.24-16.1 112.24-16.05L112.24-16.05Q112.24-15.6 106.02-14.8 99.79-14 99.29-13.85L99.29-13.85Q98.34-13 95.79-8.78 93.24-4.55 93.24-2.6L93.24-2.6Q93.24-0.75 95.79-0.75L95.79-0.75Q96.99-0.75 98.94-1.5 100.89-2.25 101.94-2.9L101.94-2.9Q104.74-4.65 107.94-8.05L107.94-8.05Q108.64-8.75 108.89-8.75L108.89-8.75Q109.04-8.75 109.04-8.45 109.04-8.15 108.29-7.25L108.29-7.25Q105.69-4.05 102.44-2.1L102.44-2.1Q98.54 0.3 94.99 0.3L94.99 0.3Q93.44 0.3 92.47-0.38 91.49-1.05 91.49-3.1 91.49-5.15 93.29-8.72 95.09-12.3 96.04-14.05L96.04-14.05Q95.34-13.9 94.84-13.9L94.84-13.9Q93.39-13.9 93.39-15.05L93.39-15.05Q93.39-15.9 94.59-16.25L94.59-16.25Q94.74-16.25 95.04-16.3L95.04-16.3 97.94-16.3Q98.84-17.45 99.99-18.95L99.99-18.95Q101.39-20.75 101.89-20.75 102.39-20.75 103.14-20.35 103.89-19.95 103.89-19.4 103.89-18.85 101.49-16.15L101.49-16.15Q102.79-16.1 104.89-16.1ZM110.49 0.65L110.49 0.65Q109.94 0.65 109.49 0.5L109.49 0.5Q106.29-0.4 106.29-3.1L106.29-3.1Q106.29-6.6 110.69-11.2 115.09-15.8 118.59-15.8L118.59-15.8Q119.74-15.8 120.46-15.18 121.19-14.55 121.19-13.48 121.19-12.4 120.54-11.23 119.89-10.05 118.59-10.05 117.29-10.05 117.29-10.85L117.29-10.85Q117.29-11.4 117.96-12.53 118.64-13.65 118.64-13.73 118.64-13.8 118.49-13.8L118.49-13.8Q117.09-13.65 114.66-11.8 112.24-9.95 111.34-8.7L111.34-8.7 109.39-5.85Q108.89-5.05 108.66-3.95 108.44-2.85 108.44-2.3 108.44-1.75 109.06-1.05 109.69-0.35 110.84-0.35L110.84-0.35Q113.34-0.35 117.04-3.28 120.74-6.2 122.74-8.85L122.74-8.85Q122.99-9.15 123.34-9.15 123.69-9.15 123.69-8.95 123.69-8.75 123.44-8.45L123.44-8.45Q120.69-4.8 116.86-2.08 113.04 0.65 110.49 0.65ZM132.69-0.2L132.69-0.2Q129.74-0.2 129.74-3.65L129.74-3.65Q129.74-5.6 131.11-7.98 132.49-10.35 134.49-13.55L134.49-13.55Q128.09-10.35 122.89-4.1L122.89-4.1Q119.99 0.25 119.49 0.25L119.49 0.25Q118.04 0.25 118.04-0.6L118.04-0.6Q118.04-1.05 118.64-2.2L118.64-2.2Q123.49-10.85 125.99-14.85L125.99-14.85Q131.94-24.4 134.39-25.2L134.39-25.2Q134.49-25.25 134.59-25.25L134.59-25.25Q135.24-25.25 135.49-24.2L135.49-24.2Q135.34-23.15 130.28-16.6L130.28-16.6Q125.04-9.95 124.34-7.9L124.34-7.9Q126.19-9.25 130.78-12.45L130.78-12.45Q135.74-15.9 137.34-15.9 138.94-15.9 138.94-14.65L138.94-14.65Q138.94-14.45 138.91-14.38 138.89-14.3 135.44-9.65 131.99-5 131.99-2.8L131.99-2.8Q131.99-1.65 132.84-1.65L132.84-1.65Q135.53-1.75 140.94-8.15L140.94-8.15Q141.39-8.6 141.61-8.6 141.84-8.6 141.84-8.3L141.84-8.3Q141.84-7.3 136.89-2.9L136.89-2.9Q133.78-0.2 132.69-0.2ZM142.18 0.65L142.18 0.65Q141.63 0.65 141.18 0.5L141.18 0.5Q137.98-0.4 137.98-3.1L137.98-3.1Q137.98-6.6 142.38-11.2 146.78-15.8 150.28-15.8L150.28-15.8Q151.43-15.8 152.16-15.18 152.88-14.55 152.88-13.65L152.88-13.65Q152.88-10.85 148.66-8.3 144.43-5.75 141.78-5.75L141.78-5.75Q141.38-5.75 141.08-5.85L141.08-5.85Q140.33-4.5 140.33-3L140.33-3Q140.33-0.4 142.81-0.4 145.28-0.4 149.23-3.75L149.23-3.75Q152.28-6.2 154.43-8.95L154.43-8.95Q154.88-9.55 155.21-9.55 155.53-9.55 155.53-9.25 155.53-8.95 155.13-8.4L155.13-8.4Q152.43-4.85 148.63-2.1 144.83 0.65 142.18 0.65ZM151.63-13.75L151.63-13.75Q151.63-14.35 150.36-14.35 149.08-14.35 146.73-12.4L146.73-12.4Q143.58-9.8 141.83-6.95L141.83-6.95Q142.13-6.85 142.48-6.85L142.48-6.85Q144.38-6.85 147.56-8.88 150.73-10.9 151.53-13.3L151.53-13.3Q151.63-13.55 151.63-13.75ZM162.68 0.25L162.68 0.25Q158.93 0.25 158.93-3.9L158.93-3.9Q158.93-6 160.03-8.5 161.13-11 162.43-12.7L162.43-12.7Q162.18-12.65 161.78-12.65L161.78-12.65Q160.58-12.65 159.78-14.35L159.78-14.35 156.08-9.55Q152.98-5.7 152.48-5.7L152.48-5.7Q152.23-5.7 152.23-5.9L152.23-5.9Q152.23-6.4 153.08-7.35L153.08-7.35Q157.43-12.4 159.23-15.9L159.23-15.9Q160.38-20.25 162.13-20.25L162.13-20.25Q163.28-20.25 163.28-19.25 163.28-18.25 162.03-16.7L162.03-16.7 160.83-15.1Q160.83-14.05 162.38-14.05L162.38-14.05Q163.28-14.05 164.38-14.7L164.38-14.7 165.68-15.5Q165.78-15.55 166.18-15.55 166.58-15.55 167.03-15.05 167.48-14.55 167.33-14.15L167.33-14.15 163.88-9.8Q160.68-5.7 160.68-3.33 160.68-0.95 162.88-0.95L162.88-0.95Q165.18-0.95 168.53-3.4L168.53-3.4Q170.53-4.85 172.18-6.65L172.18-6.65Q173.73-8.45 173.88-8.45L173.88-8.45Q174.23-8.45 174.23-8.08 174.23-7.7 173.78-7.2L173.78-7.2 172.18-5.4Q170.83-4 169.18-2.7L169.18-2.7Q165.23 0.25 162.68 0.25Z" opacity="1" transform="matrix(1,0,0,1,0,0)" fill="#ffffff" class="undefined-text-0" data-fill-palette-color="primary" id="text-0"></path></svg></g></svg></g></svg></g></svg></g><g transform="matrix(1,0,0,1,98.76184416262532,0)"><svg viewBox="0 0 197.99631167474934 197.99631167474934" height="197.99631167474934" width="197.99631167474934"><g><svg></svg></g><g id="icon-0"><svg viewBox="0 0 197.99631167474934 197.99631167474934" height="197.99631167474934" width="197.99631167474934"><g><path d="M0 98.998c0-54.675 44.323-98.998 98.998-98.998 54.675 0 98.998 44.323 98.998 98.998 0 54.675-44.323 98.998-98.998 98.998-54.675 0-98.998-44.323-98.998-98.998zM98.998 190.663c50.625 0 91.665-41.04 91.665-91.665 0-50.625-41.04-91.665-91.665-91.665-50.625 0-91.665 41.04-91.665 91.665 0 50.625 41.04 91.665 91.665 91.665z" data-fill-palette-color="accent" fill="#ffffff" stroke="transparent"></path></g><g transform="matrix(1,0,0,1,41.70810526690534,56.551433191592324)"><svg viewBox="0 0 114.58010114093865 84.89344529156469" height="84.89344529156469" width="114.58010114093865"><g><svg xmlns="http://www.w3.org/2000/svg" xmlns:xlink="http://www.w3.org/1999/xlink" version="1.1" x="0" y="0" viewBox="6.365835189819336 17.658477783203125 86.93444061279297 64.4105224609375" style="enable-background:new 0 0 100 100;" xml:space="preserve" height="84.89344529156469" width="114.58010114093865" class="icon-s-0" data-fill-palette-color="accent" id="s-0"><g fill="#89939e" data-fill-palette-color="accent"><path d="M92.088 32.302c-2.89-7.977-10.532-13.336-19.012-13.336-2.347 0-4.666 0.409-6.89 1.216-1.557 0.565-2.988 1.319-4.308 2.2l-1.683-4.155c-0.179-0.438-0.654-0.667-1.11-0.528L7.009 33.603c-0.471 0.144-0.743 0.639-0.609 1.114l13.036 46.687c0.066 0.239 0.227 0.441 0.448 0.558 0.133 0.071 0.281 0.107 0.428 0.107 0.096 0 0.19-0.015 0.282-0.045L74.328 64.44c0.478-0.156 0.737-0.669 0.583-1.147l-1.271-3.894c2.154-0.06 4.283-0.45 6.33-1.191C90.452 54.405 95.889 42.784 92.088 32.302zM20.931 79.999L8.391 35.082l50.428-15.402 1.545 3.813c-6.505 5.278-9.309 14.285-6.298 22.594 0.413 1.138 0.931 2.215 1.525 3.238-0.044 0.017-0.09 0.012-0.133 0.032-0.163 0.072-1.682 0.595-5.908-3.869-0.46-0.488-1.153-0.679-1.799-0.504-0.647 0.176-1.144 0.694-1.295 1.347-0.629 2.734-1.338 6.044-1.677 8.442-1.224-0.807-2.46-2.403-3.666-3.961-0.988-1.275-2.007-2.593-3.114-3.587-0.568-0.511-2.057-1.671-3.663-1.373-0.833 0.154-1.513 0.668-1.913 1.445-0.361 0.703-0.364 1.423-0.316 2.141 0.282 4.271 0.217 6.681 0.066 8.035-3.339-2.408-6.558-6.635-9.448-10.436-1.38-1.814-2.684-3.528-3.967-5.015-0.659-0.763-1.807-0.846-2.567-0.19-0.76 0.656-0.846 1.805-0.19 2.565 1.211 1.403 2.482 3.074 3.828 4.842 3.665 4.817 7.819 10.276 12.587 12.623 0.256 0.127 0.531 0.187 0.803 0.187 0.547 0 1.084-0.248 1.437-0.704 1.169-1.506 1.51-4.743 1.139-11.205 0.789 0.762 1.593 1.802 2.442 2.897 2.172 2.807 4.713 5.987 8.2 5.912 0.487-0.012 0.949-0.216 1.283-0.568 0.334-0.353 0.512-0.825 0.496-1.31-0.028-0.889 0.384-3.416 1.089-6.769 2.119 1.798 5.066 3.579 7.693 2.349 0.244-0.114 0.443-0.279 0.607-0.471 3.51 4.17 8.621 6.836 14.2 7.191-0.013 0.123-0.004 0.251 0.036 0.376l1.06 3.244L20.931 79.999zM79.348 56.497c-2.025 0.735-4.135 1.108-6.27 1.108-7.716 0-14.671-4.878-17.303-12.137-3.457-9.541 1.49-20.116 11.031-23.575 2.025-0.735 4.135-1.108 6.27-1.108 7.718 0 14.671 4.878 17.303 12.137C93.837 42.462 88.888 53.037 79.348 56.497z" fill="#ffffff" data-fill-palette-color="accent"></path><path d="M73.15 22.196c-1.97 0-3.915 0.343-5.784 1.02C58.572 26.406 54.01 36.156 57.2 44.951c2.425 6.692 8.835 11.189 15.951 11.189 1.968 0 3.913-0.343 5.78-1.02 4.261-1.545 7.667-4.657 9.587-8.762 1.922-4.105 2.128-8.713 0.583-12.973C86.677 26.693 80.266 22.196 73.15 22.196zM86.872 45.587c-1.716 3.665-4.755 6.444-8.56 7.822-1.666 0.605-3.403 0.911-5.16 0.911-6.354 0-12.077-4.014-14.243-9.99-2.847-7.852 1.226-16.557 9.077-19.405 1.67-0.605 3.405-0.911 5.164-0.911 6.352 0 12.077 4.014 14.243 9.99C88.771 37.809 88.586 41.923 86.872 45.587z" fill="#ffffff" data-fill-palette-color="accent"></path><path d="M73.996 35.222c0.668 0.018 1.222 0.183 1.663 0.496 0.442 0.314 0.86 0.758 1.258 1.333l1.824-1.282c-0.249-0.367-0.519-0.711-0.814-1.034-0.293-0.322-0.62-0.599-0.988-0.834-0.368-0.234-0.782-0.421-1.247-0.562-0.465-0.139-0.993-0.218-1.584-0.234-0.68-0.018-1.316 0.079-1.906 0.289-0.59 0.21-1.119 0.504-1.592 0.883-0.473 0.38-0.886 0.838-1.24 1.375-0.355 0.536-0.638 1.129-0.846 1.779l-1.81-0.047-0.043 1.637 1.503 0.039c-0.03 0.141-0.046 0.289-0.052 0.441-0.004 0.155-0.007 0.302-0.011 0.443-0.004 0.129-0.007 0.254-0.011 0.376-0.002 0.122 0 0.241 0.011 0.356l-1.483-0.038-0.043 1.656 1.751 0.045c0.176 0.686 0.426 1.314 0.751 1.888 0.327 0.575 0.721 1.066 1.187 1.476 0.464 0.41 0.993 0.732 1.581 0.966 0.592 0.233 1.249 0.359 1.968 0.377 0.551 0.014 1.053-0.04 1.506-0.163 0.453-0.123 0.87-0.299 1.258-0.527 0.384-0.228 0.735-0.504 1.059-0.83 0.323-0.326 0.625-0.683 0.906-1.074l-1.663-1.296c-0.226 0.29-0.449 0.547-0.673 0.773-0.224 0.225-0.455 0.412-0.689 0.56-0.236 0.147-0.485 0.26-0.751 0.337-0.265 0.077-0.558 0.11-0.878 0.102-0.758-0.02-1.398-0.25-1.92-0.695-0.52-0.443-0.906-1.054-1.156-1.831l4.158 0.108 0.043-1.656L70.5 40.738c-0.009-0.129-0.012-0.254-0.009-0.377 0.002-0.122 0.005-0.253 0.009-0.394 0.004-0.141 0.009-0.282 0.012-0.425 0.004-0.139 0.02-0.28 0.05-0.422l4.505 0.116 0.043-1.636-4.139-0.107c0.288-0.724 0.691-1.289 1.208-1.693C72.695 35.398 73.301 35.204 73.996 35.222z" fill="#ffffff" data-fill-palette-color="accent"></path></g></svg></g></svg></g></svg></g></svg></g><g></g></svg></g><defs></defs></svg><rect width="307.74317155398865" height="247.2" fill="none" stroke="none" visibility="hidden"></rect></g></svg></g></svg>