<?xml version="1.0" encoding="UTF-8"?>
<svg width="678px" height="697px" viewBox="0 0 678 697" version="1.1" xmlns="http://www.w3.org/2000/svg" xmlns:xlink="http://www.w3.org/1999/xlink">
    <title>mobile-post-colour</title>
    <g id="Page-1" stroke="none" stroke-width="1" fill="none" fill-rule="evenodd">
        <g id="mobile-post-colour" transform="translate(0.000000, 1.000000)">
            <path d="M598.65,102.54 C578.578212,82.1591714 555.818077,64.6138491 531,50.39 L531,474.72 C587.68,414 652.36,372.64 671.57,313.81 C692.7,249.11 658.66,163.43 598.65,102.54 Z" id="Path" fill="#139B6B" fill-rule="nonzero"></path>
            <path d="M155,624.73 L155,135.73 C84.65,196.32 13.74,265.72 1.8,346.83 C-10.08,428.69 38,522.45 108.91,593.75 C123.752844,608.743404 139.613951,622.693293 156.38,635.5 C155.461521,631.983748 154.997739,628.36423 155,624.73 Z" id="Path" fill="#139B6B" fill-rule="nonzero"></path>
            <path d="M205.07,667.17 C252.95,693.06 301.89,703.9 342.19,689.27 C355.44,684.42 367.75,676.81 379.43,667.17 L205.07,667.17 Z" id="Path" fill="#139B6B" fill-rule="nonzero"></path>
            <path d="M531,401.82 L531,313.18 C471,307.94 409,305.18 345.49,305.18 C280.27,305.18 216.58,308.08 155,313.61 L155,401.81 L531,401.82 Z" id="Path" fill="#E0E0E0" fill-rule="nonzero"></path>
            <path d="M281.78,402.18 C284.58,385.52 290.78,334 260.37,333.5 C257.37,342.57 251.26,381.42 253.18,402.18 L281.78,402.18 Z" id="Path" fill="#FFC2C2" fill-rule="nonzero"></path>
            <path d="M301.27,266.5 C331.19,272.91 318.57,335.86 313.51,345.5 C303.57,353.43 267.68,348.79 254.86,333.74 C252.94,326.18 268.89,259.56 301.27,266.5 Z" id="Path" fill="#303490" fill-rule="nonzero"></path>
            <rect id="Rectangle" stroke="#000000" stroke-width="3" x="154.99" y="0.5" width="376" height="666" rx="42.45"></rect>
            <path d="M410.41,0.31 C410.467062,0.871483083 410.493767,1.43563745 410.490349,2 L410.490349,12 C410.492653,16.3751523 408.75649,20.5720178 405.663728,23.6666558 C402.570965,26.7612939 398.375153,28.500003 394,28.500003 L292,28.500003 C287.622196,28.5026532 283.422787,26.7654367 280.326273,23.6707988 C277.22976,20.576161 275.49,16.3778052 275.49,12 L275.49,2 C275.49,1.49 275.49,1 275.56,0.5" id="Path" fill="#000000" fill-rule="nonzero"></path>
            <circle id="Oval" fill="#D1AA33" fill-rule="nonzero" cx="342.99" cy="629.42" r="19.22"></circle>
            <circle id="Oval" fill="#F5726E" fill-rule="nonzero" cx="198.82" cy="442.1" r="21.73"></circle>
            <circle id="Oval" fill="#F5726E" fill-rule="nonzero" cx="221.59" cy="520.77" r="12.24"></circle>
            <line x1="240.33" y1="433.06" x2="437.53" y2="433.06" id="Path" stroke="#F5726E" stroke-width="3" stroke-linecap="round"></line>
            <line x1="249.07" y1="520.77" x2="446.27" y2="520.77" id="Path" stroke="#F5726E" stroke-width="3" stroke-linecap="round"></line>
            <line x1="240.33" y1="451.34" x2="305.86" y2="451.34" id="Path" stroke="#F5726E" stroke-width="3" stroke-linecap="round"></line>
            <path d="M317.17,109.37 L192.34,109.37 C192.34,109.37 199.8,99.05 221.59,97.2 C243.38,95.35 232.54,67.31 264.28,67.31 C296.02,67.31 289.67,86.31 303.16,86.31 C316.65,86.31 317.17,109.37 317.17,109.37 Z" id="Path" fill="#F1F1F1" fill-rule="nonzero"></path>
            <path d="M407.78,123.87 L493.89,123.87 C493.89,123.87 488.74,116.75 473.71,115.48 C458.68,114.21 466.16,94.86 444.27,94.86 C422.38,94.86 426.75,108 417.45,108 C408.15,108 407.78,123.87 407.78,123.87 Z" id="Path" fill="#F1F1F1" fill-rule="nonzero"></path>
            <path d="M408.73,402.18 C411.73,367.75 407.21,250.82 346.4,250.82 C284.09,250.82 264.96,330.33 272.04,402.18 L408.73,402.18 Z" id="Path" fill="#18236D" fill-rule="nonzero"></path>
            <path d="M445.05,402.18 C443.25,385.62 432.59,338.83 428.83,331.18 C428.83,331.18 385.46,339.18 385.46,342.06 C385.46,344.59 396.05,388.06 400.46,402.19 L445.05,402.18 Z" id="Path" fill="#FFC2C2" fill-rule="nonzero"></path>
            <path d="M385,265.33 C414,255.54 435.33,316.09 435.91,326.97 C431.41,338.86 398.2,353.22 379.49,346.84 C374,341.32 353.65,275.91 385,265.33 Z" id="Path" fill="#1F2067" fill-rule="nonzero"></path>
            <path d="M365.69,209.93 C364.1,215.38 358.08,246.83 362.39,263.4 C359.33,267.49 328.9,268.51 325.27,263.97 C327.27,256.7 330.6,236.04 329.27,228.77 C327.94,221.5 365.69,209.93 365.69,209.93 Z" id="Path" fill="#FFC2C2" fill-rule="nonzero"></path>
            <ellipse id="Oval" fill="#FFC2C2" fill-rule="nonzero" cx="332.48" cy="197" rx="41.52" ry="47.5"></ellipse>
            <path d="M301.31,180.62 C306.76,180.73 337.64,178.24 341.96,180.17 C346.28,182.1 346.96,190.27 355.58,191.07 C362.04,191.66 367.49,203.07 372.63,209.07 C373.540112,205.111159 374,201.062108 374,197 C374,170.77 355.42,149.5 332.49,149.5 C315.56,149.5 301.01,161.09 294.55,177.71 C296.381973,179.458491 298.780823,180.491132 301.31,180.62 L301.31,180.62 Z" id="Path" fill="#FF5000" fill-rule="nonzero"></path>
            <ellipse id="Oval" fill="#FFC2C2" fill-rule="nonzero" cx="367.27" cy="199.1" rx="10.62" ry="12.94"></ellipse>
            <rect id="Rectangle" stroke="#000000" stroke-width="3" x="154.99" y="402.18" width="376" height="189.33"></rect>
            <g id="Group" transform="translate(188.144918, 169.000000)">
                <g id="Winston-Logo" transform="translate(32.000000, 44.000000) scale(-1, 1) translate(-32.000000, -44.000000) ">
                    <rect id="Rectangle" stroke="#DB615E" fill="#DB615E" x="9.52295082" y="69.852381" width="7.60327869" height="17.4380952" rx="3.80163934"></rect>
                    <path d="M9.33129894,68.803534 C9.9186421,68.8037781 10.4500504,69.0414584 10.8346926,69.4257807 C11.2193194,69.8100878 11.4571544,70.3409913 11.4573987,70.9274509 L11.4573987,70.9274509 L11.4632455,84.9608627 C11.4634895,85.5464044 11.2263727,86.0766118 10.8428094,86.4604948 C10.4592462,86.8443778 9.92923655,87.0819363 9.34411059,87.0821803 C8.75582682,87.0819362 8.22477537,86.8442643 7.84035148,86.4598406 C7.45603368,86.075523 7.21825541,85.5446658 7.2180111,84.9582634 L7.2180111,84.9582634 L7.21216431,70.9248516 C7.21192036,70.3393099 7.44903717,69.8091025 7.8326004,69.4252195 C8.21616363,69.0413365 8.74617328,68.803778 9.33129894,68.803534 Z" id="Rectangle" stroke="#DB615E" fill="#DB615E" transform="translate(9.337705, 77.942857) rotate(-17.000000) translate(-9.337705, -77.942857) "></path>
                    <rect id="Rectangle" stroke="#DB615E" fill="#DB615E" transform="translate(50.465574, 78.571429) scale(-1, -1) translate(-50.465574, -78.571429) " x="46.6639344" y="69.852381" width="7.60327869" height="17.4380952" rx="3.80163934"></rect>
                    <path d="M54.446053,68.803534 C55.0333962,68.8037781 55.5648045,69.0414584 55.9494467,69.4257807 C56.3340735,69.8100878 56.5719085,70.3409913 56.5721528,70.9274509 L56.5721528,70.9274509 L56.5779996,84.9608627 C56.5782436,85.5464044 56.3411268,86.0766118 55.9575635,86.4604948 C55.5740003,86.8443778 55.0439907,87.0819363 54.4588647,87.0821803 C53.8705809,87.0819362 53.3395295,86.8442643 52.9551056,86.4598406 C52.5707878,86.075523 52.3330095,85.5446658 52.3327652,84.9582634 L52.3327652,84.9582634 L52.3269184,70.9248516 C52.3266745,70.3393099 52.5637913,69.8091025 52.9473545,69.4252195 C53.3309177,69.0413365 53.8609274,68.803778 54.446053,68.803534 Z" id="Rectangle" stroke="#DB615E" fill="#DB615E" transform="translate(54.452459, 77.942857) scale(-1, 1) rotate(-17.000000) translate(-54.452459, -77.942857) "></path>
                    <ellipse id="Oval" stroke="#F2BA35" fill="#F2BA35" cx="31.895082" cy="15.7142857" rx="15.2377049" ry="15.2142857"></ellipse>
                    <ellipse id="Oval" stroke="#FEC844" fill="#FEC844" cx="32.104918" cy="15.7142857" rx="11.8803279" ry="11.8619048"></ellipse>
                    <ellipse id="Oval" stroke="#E88582" fill="#E88582" cx="32" cy="56.3619048" rx="31.5" ry="29.252381"></ellipse>
                    <ellipse id="Oval" stroke="#DB615E" fill="#DB615E" cx="32.104918" cy="61.3904762" rx="11.8803279" ry="8.71904762"></ellipse>
                    <path d="M18.6160418,29.4596009 C27.0745915,25.8260782 36.8189193,25.8260782 45.277469,29.4596009 L45.277469,29.4596009 L44.9392498,30.1342549 C36.6958244,26.5900306 27.1976864,26.5900306 18.954261,30.1342549 L18.954261,30.1342549 Z" id="Path" stroke="#DB615E" stroke-width="0.25" fill="#DB615E"></path>
                    <ellipse id="Oval" stroke="#000000" fill="#000000" cx="23.8163934" cy="43.3714286" rx="2.12295082" ry="5.36666667"></ellipse>
                    <ellipse id="Oval" stroke="#000000" fill="#000000" cx="39.9737705" cy="43.3714286" rx="2.12295082" ry="5.36666667"></ellipse>
                    <ellipse id="Oval" stroke="#000000" fill="#000000" cx="27.5934426" cy="60.7619048" rx="1" ry="1.5952381"></ellipse>
                    <ellipse id="Oval" stroke="#000000" fill="#000000" cx="37.4557377" cy="60.7619048" rx="1" ry="1.5952381"></ellipse>
                    <path d="M3.8723812,42.1498561 C2.45836887,36.1407924 1.32226045,31.4289577 3.62144597,25.481538 C5.51493489,20.5835542 15.2060131,30.1313798 15.9954482,31.5048337 C16.3077323,32.0481436 15.0812145,32.380657 14.5377426,32.6936006 C13.2575469,33.4307668 11.6858176,33.6880718 10.5547162,34.6377325 C8.22916945,36.5902368 6.396386,39.0623388 4.31722092,41.2746419 L3.8723812,42.1498561 Z" id="Path" stroke="#E88582" fill="#E88582"></path>
                    <path d="M49.4068074,42.1498561 C47.9927951,36.1407924 46.8566867,31.4289577 49.1558722,25.481538 C51.0493611,20.5835542 60.7404394,30.1313798 61.5298744,31.5048337 C61.8421585,32.0481436 60.6156407,32.380657 60.0721689,32.6936006 C58.7919732,33.4307668 57.2202438,33.6880718 56.0891424,34.6377325 C53.7635957,36.5902368 51.9308122,39.0623388 49.8516472,41.2746419 L49.4068074,42.1498561 Z" id="Path" stroke="#E88582" fill="#E88582" transform="translate(54.711325, 33.122547) scale(-1, 1) translate(-54.711325, -33.122547) "></path>
                </g>
            </g>
        </g>
    </g>
</svg>