<?xml version="1.0" encoding="UTF-8"?>
<svg width="749px" height="782px" viewBox="0 0 749 782" version="1.1" xmlns="http://www.w3.org/2000/svg" xmlns:xlink="http://www.w3.org/1999/xlink">
    <title>ticket-colour</title>
    <defs>
        <filter x="-2.0%" y="-1.6%" width="104.0%" height="103.1%" filterUnits="objectBoundingBox" id="filter-1">
            <feOffset dx="0" dy="2" in="SourceAlpha" result="shadowOffsetOuter1"></feOffset>
            <feGaussianBlur stdDeviation="2" in="shadowOffsetOuter1" result="shadowBlurOuter1"></feGaussianBlur>
            <feColorMatrix values="0 0 0 0 0   0 0 0 0 0   0 0 0 0 0  0 0 0 0.5 0" type="matrix" in="shadowBlurOuter1" result="shadowMatrixOuter1"></feColorMatrix>
            <feMerge>
                <feMergeNode in="shadowMatrixOuter1"></feMergeNode>
                <feMergeNode in="SourceGraphic"></feMergeNode>
            </feMerge>
        </filter>
    </defs>
    <g id="Page-1" stroke="none" stroke-width="1" fill="none" fill-rule="evenodd">
        <g id="ticket-colour" filter="url(#filter-1)" transform="translate(12.000000, 9.000000)">
            <path d="M623.69,127.76 C692.17,215.63 716.87,336.23 691.26,444.25 C665.65,552.27 589.75,647.42 503.55,668.63 C417.35,689.84 320.83,637.12 248.55,583.49 C176.3,529.7 128.12,475.16 113.27,412.29 C98.42,349.42 117.06,278.36 158.87,196.69 C200.68,115.02 265.87,22.31 354.47,3.69 C443.1,-15.11 555.21,39.89 623.69,127.76 Z" id="Path" fill="#139B6B" fill-rule="nonzero"></path>
            <path d="M389.8,136.51 C389.99,146.66 394.23,163.63 394.42,176.18 C394.61,188.73 385.93,201.82 383.35,208.09 C380.77,214.36 394.78,234.66 394.78,234.66 L426.33,217 L425,161.6 C425,161.6 389.62,126.36 389.8,136.51 Z" id="Path" fill="#0F0F0F" fill-rule="nonzero"></path>
            <path d="M409.05,180.59 C429.51,193.84 403.05,244 391.17,253.03 C379.29,262.06 347.36,240.31 346.92,229.14 C346.48,217.97 388.59,167.35 409.05,180.59 Z" id="Path" fill="#8EC8FF"></path>
            <polygon id="Path" stroke="#252525" stroke-width="4.41" fill="#FFFFFF" points="43.75 173.37 0 449.74 138.49 471.66 163.93 453.26 182.45 478.62 681.18 557.56 724.92 281.19 227.58 202.47 200.53 222 180.85 195"></polygon>
            <line x1="163.72" y1="454.6" x2="200.72" y2="220.89" id="Path" stroke="#252525" stroke-width="4.41" stroke-linejoin="round"></line>
            <polygon id="Path" fill="#252525" points="103.41 342.83 124.27 346.13 109.93 436.74 89.07 433.44"></polygon>
            <polygon id="Path" fill="#252525" points="113.68 278 134.53 281.3 127.21 327.55 106.36 324.25"></polygon>
            <polygon id="Path" fill="#252525" points="248.42 260.05 638.28 321.76 634.6 345 244.74 283.29"></polygon>
            <line x1="244.73" y1="318.67" x2="559.66" y2="368.52" id="Path" stroke="#252525" stroke-width="4.41" stroke-linecap="round" stroke-linejoin="round"></line>
            <line x1="239.58" y1="352.24" x2="464.41" y2="387.83" id="Path" stroke="#252525" stroke-width="4.41" stroke-linecap="round" stroke-linejoin="round"></line>
            <line x1="235.61" y1="385.44" x2="590.34" y2="441.59" id="Path" stroke="#252525" stroke-width="4.41" stroke-linecap="round" stroke-linejoin="round"></line>
            <path d="M418.31,56.42 C455.55,56.42 469.25,88.65 469.83,109.49 C469.83,122.22 466.17,134.57 468.83,144.22 C468.63,168.14 494.49,190.91 494.49,227.95 C494.49,293.95 443.16,285.65 416.73,286.61 C390.3,287.57 411.88,225.41 412.27,213.44 C412.66,201.47 413.16,174.44 413.93,163.26 C414.7,152.08 383.16,129.36 383.54,119.52 C383.92,109.68 365.45,58.16 418.31,56.42 Z" id="Path" fill="#0F0F0F" fill-rule="nonzero"></path>
            <polygon id="Path" fill="#5B2121" points="593.68 678.2 610.52 689.62 625.76 672.49 610.57 657.26"></polygon>
            <polygon id="Path" fill="#5B2121" points="297.27 713.83 290.11 731.21 310.62 741.06 318.76 724.65"></polygon>
            <path d="M482.18,336.72 C491.08,345.2 495.68,476.72 494.42,503.09 C501.09,517.92 612.42,657.47 612.42,657.47 L593.84,680.85 C593.84,680.85 441.97,564.85 433.84,551.61 C425.71,538.37 339.51,413.17 482.18,336.72 Z" id="Path" fill="#223164"></path>
            <path d="M381.55,361 C374.39,380.93 345.73,494.33 340.74,526.42 C335.75,558.51 295.57,714.27 295.57,714.27 L318.62,726.74 C318.62,726.74 498.61,406.4 481,347.83 C463.39,289.26 388.72,341.08 381.55,361 Z" id="Path" fill="#1C1D50"></path>
            <path d="M378.76,111.15 C380.55,85.79 398.09,66.37 417.93,67.77 C437.77,69.17 452.41,90.87 450.62,116.23 C448.83,141.59 431.29,161 411.44,159.61 C391.59,158.22 377,136.51 378.76,111.15 Z" id="Path" fill="#5B2121"></path>
            <path d="M420.52,173.78 C477.16,160.18 496.17,312.78 484.91,348.59 C474.83,374.48 405.45,383.97 378.17,370.92 C367.7,362.62 342.79,192.44 420.52,173.78 Z" id="Path" fill="#8EC2FF"></path>
            <path d="M429,264.6 C431.26,278.82 435.32,325.6 436,336.6 C436.68,347.6 422.9,411.6 418.16,420.38 C422.9,426.92 436.9,438.67 436.9,438.67 C436.9,438.67 463.1,385 473.33,342 C476.56,328.43 466.48,263.66 464.67,258.47 C462.86,253.28 426.73,250.37 429,264.6 Z" id="Path" fill="#5B2121"></path>
            <polygon id="Path" fill="#000000" fill-rule="nonzero" points="313 738.06 302.42 763.38 232.65 735.92 237.17 724.2 289.72 727.44"></polygon>
            <polygon id="Path" fill="#000000" fill-rule="nonzero" points="624 669.11 645.67 685.93 601 746.12 590.87 738.7 607.71 688.82"></polygon>
            <path d="M397.09,69.16 C397.28,79.77 403.91,107.85 439.54,122.41 C461.73,131.48 459.99,122.41 459.99,122.41 L446.87,73 L427.19,61.44 C427.19,61.44 396.9,58.55 397.09,69.16 Z" id="Path" fill="#0F0F0F" fill-rule="nonzero"></path>
            <path d="M430.35,123.61 C430.35,118.186564 434.746564,113.79 440.17,113.79 C445.593436,113.79 449.99,118.186564 449.99,123.61 C449.99,129.033436 445.593436,133.43 440.17,133.43 C434.746564,133.43 430.35,129.033436 430.35,123.61 Z" id="Path" fill="#5B2121"></path>
            <path d="M436.28,190.46 C460.4,186.91 473.64,242.05 470.68,256.68 C462.06,266.74 438.43,270.38 421.68,267.94 C414,259.84 412.17,194 436.28,190.46 Z" id="Path" fill="#ADC8FF"></path>
            <path d="M408.21,138.48 L438.21,138.48 L438.21,181.29 C433.58,185.41 416.81,189.56 408.21,180.78 L408.21,138.48 Z" id="Path" fill="#5B2121"></path>
            <text id="ADMIT-ONE" fill="#252525" fill-rule="nonzero" transform="translate(82.880243, 321.747815) rotate(-80.930000) translate(-82.880243, -321.747815) " font-family="Helvetica" font-size="40.87" font-weight="normal">
                <tspan x="-33.119757" y="324.247815">ADMIT ONE</tspan>
            </text>
            <g id="Group" transform="translate(236.000000, 392.000000)">
                <g id="Winston-Logo" transform="translate(33.000000, 45.442623) rotate(-81.000000) translate(-33.000000, -45.442623) ">
                    <rect id="Rectangle" stroke="#DB615E" fill="#DB615E" x="9.80491803" y="72.1262295" width="7.87213115" height="18.042623" rx="3.93606557"></rect>
                    <rect id="Rectangle" stroke="#DB615E" fill="#DB615E" transform="translate(9.629508, 80.498361) rotate(-17.000000) translate(-9.629508, -80.498361) " x="7.42459016" y="71.0442623" width="4.40983607" height="18.9081967" rx="2.20491803"></rect>
                    <rect id="Rectangle" stroke="#DB615E" fill="#DB615E" transform="translate(52.042623, 81.147541) scale(-1, -1) translate(-52.042623, -81.147541) " x="48.1065574" y="72.1262295" width="7.87213115" height="18.042623" rx="3.93606557"></rect>
                    <path d="M56.1540984,71.0442623 C56.7629697,71.0442623 57.3141992,71.2910562 57.7132109,71.6900678 C58.1122225,72.0890795 58.3590164,72.640309 58.3590164,73.2491803 L58.3590164,73.2491803 L58.3590164,87.747541 C58.3590164,88.3564123 58.1122225,88.9076418 57.7132109,89.3066535 C57.3141992,89.7056652 56.7629697,89.952459 56.1540984,89.952459 C55.5452271,89.952459 54.9939976,89.7056652 54.5949859,89.3066535 C54.1959742,88.9076418 53.9491803,88.3564123 53.9491803,87.747541 L53.9491803,87.747541 L53.9491803,73.2491803 C53.9491803,72.640309 54.1959742,72.0890795 54.5949859,71.6900678 C54.9939976,71.2910562 55.5452271,71.0442623 56.1540984,71.0442623 Z" id="Rectangle" stroke="#DB615E" fill="#DB615E" transform="translate(56.154098, 80.498361) scale(-1, 1) rotate(-17.000000) translate(-56.154098, -80.498361) "></path>
                    <circle id="Oval" stroke="#F2BA35" fill="#F2BA35" cx="32.8918033" cy="16.2295082" r="15.7295082"></circle>
                    <circle id="Oval" stroke="#FEC844" fill="#FEC844" cx="33.1081967" cy="16.2295082" r="12.2672131"></circle>
                    <ellipse id="Oval" stroke="#E88582" fill="#E88582" cx="33" cy="58.2098361" rx="32.5" ry="30.2278689"></ellipse>
                    <ellipse id="Oval" stroke="#DB615E" fill="#DB615E" cx="33.1081967" cy="63.4032787" rx="12.2672131" ry="9.02131148"></ellipse>
                    <path d="M19.1923394,30.4234072 C27.9184042,26.6680688 37.9717789,26.6680688 46.6978437,30.4234072 L46.6978437,30.4234072 L46.3454063,31.1274701 C37.8434564,27.4655594 28.0467266,27.4655594 19.5447767,31.1274701 L19.5447767,31.1274701 Z" id="Path" stroke="#DB615E" stroke-width="0.25" fill="#DB615E"></path>
                    <ellipse id="Oval" stroke="#000000" fill="#000000" cx="24.5606557" cy="44.7934426" rx="2.20491803" ry="5.55901639"></ellipse>
                    <ellipse id="Oval" stroke="#000000" fill="#000000" cx="41.2229508" cy="44.7934426" rx="2.20491803" ry="5.55901639"></ellipse>
                    <ellipse id="Oval" stroke="#000000" fill="#000000" cx="28.4557377" cy="62.7540984" rx="1" ry="1.66393443"></ellipse>
                    <ellipse id="Oval" stroke="#000000" fill="#000000" cx="38.6262295" cy="62.7540984" rx="1" ry="1.66393443"></ellipse>
                    <path d="M3.99339311,43.5318186 C2.5351929,37.3257364 1.36358109,32.4594154 3.73461615,26.3169983 C5.68727661,21.2584248 15.681201,31.1192938 16.495306,32.5377791 C16.817349,33.0989024 15.5525024,33.4423179 14.9920471,33.765522 C13.6718453,34.5268575 12.0509994,34.7925987 10.8845511,35.7733959 C8.48633099,37.7899167 6.59627307,40.3430712 4.45213407,42.6279088 L3.99339311,43.5318186 Z" id="Path" stroke="#E88582" fill="#E88582"></path>
                    <path d="M50.9507702,43.5318186 C49.4925699,37.3257364 48.3209581,32.4594154 50.6919932,26.3169983 C52.6446537,21.2584248 62.6385781,31.1192938 63.452683,32.5377791 C63.774726,33.0989024 62.5098795,33.4423179 61.9494241,33.765522 C60.6292223,34.5268575 59.0083765,34.7925987 57.8419281,35.7733959 C55.443708,37.7899167 53.5536501,40.3430712 51.4095111,42.6279088 L50.9507702,43.5318186 Z" id="Path" stroke="#E88582" fill="#E88582" transform="translate(56.421054, 34.208532) scale(-1, 1) translate(-56.421054, -34.208532) "></path>
                </g>
            </g>
        </g>
    </g>
</svg>