<?xml version="1.0" encoding="UTF-8"?>
<svg width="758px" height="896px" viewBox="0 0 758 896" version="1.1" xmlns="http://www.w3.org/2000/svg" xmlns:xlink="http://www.w3.org/1999/xlink">
    <title>unlock</title>
    <g id="Page-1" stroke="none" stroke-width="1" fill="none" fill-rule="evenodd">
        <g id="unlock" transform="translate(0.000000, 16.000000)">
            <path d="M636.5,155.73 C704.56,217.06 729.67,336.61 703.83,442.34 C677.81,548.07 601,640 496,701.29 C391,762.43 258,793.19 169.18,745.15 C80.36,697.11 36.17,570.63 13.78,446.53 C-8.42,322.42 -8.78,200.86 50.36,141.53 C109.5,82.4 228,85.31 342.79,88.22 C457.62,91.31 568.62,94.41 636.5,155.73 Z" id="Path" fill="#69D5D7" fill-rule="nonzero"></path>
            <rect id="Rectangle" fill="#E49D75" fill-rule="nonzero" x="558.8" y="841.32" width="22.08" height="14.74"></rect>
            <rect id="Rectangle" fill="#E49D75" fill-rule="nonzero" transform="translate(687.501986, 827.728365) rotate(-38.930000) translate(-687.501986, -827.728365) " x="677.141986" y="818.548365" width="20.72" height="18.36"></rect>
            <rect id="Rectangle" fill="#E49D75" fill-rule="nonzero" x="586.33" y="239.37" width="17.47" height="20.69" rx="8.23"></rect>
            <path d="M602.4,550.42 C605.4,557.3 628.4,695.36 631.78,708.42 C635.16,721.48 689.23,806.62 692.91,811.71 C694.04,819.07 677.34,831.52 669.42,831.52 C661.5,825.26 569,691.23 566.78,685.28 C564.56,679.33 557.11,536.94 602.4,550.42 Z" id="Path" fill="#D18A5F" fill-rule="nonzero"></path>
            <path d="M505.83,527.55 C504.78,533.25 520.41,663.55 522.35,681.05 C524.29,698.55 554.24,839.53 556.89,843.05 C559.54,846.57 579.7,845.81 583.18,844.05 C586.66,842.29 576.38,697.05 576.38,686.52 C576.38,675.99 603.38,578.87 599.91,550.74 C596.44,522.61 505.83,527.55 505.83,527.55 Z" id="Path" fill="#E1A86B" fill-rule="nonzero"></path>
            <rect id="Rectangle" fill="#E49D75" fill-rule="nonzero" x="561.36" y="369.6" width="21.11" height="36.74"></rect>
            <rect id="Rectangle" fill="#F5726E" fill-rule="nonzero" x="94.97" y="120.85" width="379.57" height="379.57" rx="22.42"></rect>
            <path d="M308.48,293.8 C319.139267,284.018515 322.702861,268.697851 317.454596,255.216267 C312.20633,241.734682 299.222115,232.855939 284.755,232.855939 C270.287885,232.855939 257.30367,241.734682 252.055404,255.216267 C246.807139,268.697851 250.370733,284.018515 261.03,293.8 L234,403.41 L335.48,403.41 L308.48,293.8 Z" id="Path" fill="#000000" fill-rule="nonzero"></path>
            <path d="M162.9,120.85 C163.505761,53.9820229 217.884279,0.0938908461 284.755,0.0938908461 C351.625721,0.0938908461 406.004239,53.9820229 406.61,120.85" id="Path" stroke="#F5726E" stroke-width="32" stroke-linecap="round" stroke-linejoin="round"></path>
            <ellipse id="Oval" fill="#E49D75" fill-rule="nonzero" cx="569.19" cy="336.64" rx="29" ry="39"></ellipse>
            <path d="M565.24,398.77 C530.08,398.77 498.74,496.31 504.76,528.68 C506.54,538.24 590.68,557.53 603.54,554.83 C608.11,548.61 626.76,398.77 565.24,398.77 Z" id="Path" fill="#ECECEC" fill-rule="nonzero"></path>
            <path d="M556.22,453.1 C571.96,441.68 546.8,386.34 540.92,385.39 C530.09,383.64 503.16,404.39 504.01,413.11 C504.46,417.71 540.19,464.73 556.22,453.1 Z" id="Path" fill="#F6F5F5" fill-rule="nonzero"></path>
            <path d="M509,409 C504.76,403.91 494.16,379 493,373.09 C491.84,367.18 489,278.35 489,273.09 C489,267.83 482,254.56 482,246.64 C482,238.72 490.06,227.98 494.16,227.84 C498.54,230.95 504.62,249.19 504.9,253.84 C506.43,243.84 513.67,241.54 515.65,241.54 C517.63,241.54 517.37,256.99 509.17,267.39 C509.46,275.03 519.17,350.7 520.74,355.08 C522.31,359.46 540.19,388.17 540.150067,390.71 C540.11,393.25 509,409 509,409 Z" id="Path" fill="#E49D75" fill-rule="nonzero"></path>
            <rect id="Rectangle" fill="#A4A4A4" fill-rule="nonzero" transform="translate(547.123058, 248.442891) rotate(7.780000) translate(-547.123058, -248.442891) " x="368.068058" y="243.327891" width="358.11" height="10.23"></rect>
            <rect id="Rectangle" fill="#A4A4A4" fill-rule="nonzero" transform="translate(377.864841, 245.428686) rotate(7.780000) translate(-377.864841, -245.428686) " x="366.914841" y="230.613686" width="21.9" height="29.63"></rect>
            <rect id="Rectangle" fill="#A4A4A4" fill-rule="nonzero" transform="translate(403.777134, 248.973530) rotate(7.780000) translate(-403.777134, -248.973530) " x="397.887134" y="234.15853" width="11.78" height="29.63"></rect>
            <path d="M604.74,317 C603.91,312.26 603.16,277.91 604.44,273.06 C605.72,268.21 609.18,264.67 610.73,257.43 C611.26,254.94 610.42,246.32 608.73,245.96 C605.09,245.18 604.88,249.26 604.4,252.26 C602.54,262.49 598.75,260.62 597,260.38 C595.25,260.14 589.24,259.1 587.27,259.05 C585.3,259 590.32,263.05 588.79,269.52 C587.59,274.61 581.95,308.52 580.79,314.07 C585,314.24 604.74,317 604.74,317 Z" id="Path" fill="#E49D75" fill-rule="nonzero"></path>
            <rect id="Rectangle" fill="#A4A4A4" fill-rule="nonzero" transform="translate(423.695568, 251.685058) rotate(7.780000) translate(-423.695568, -251.685058) " x="417.805568" y="236.870058" width="11.78" height="29.63"></rect>
            <rect id="Rectangle" fill="#A4A4A4" fill-rule="nonzero" transform="translate(399.564996, 238.743420) rotate(7.780000) translate(-399.564996, -238.743420) " x="368.019996" y="233.49342" width="63.09" height="10.5"></rect>
            <path d="M734.69,247.08 C720.171809,245.102679 706.797977,255.264753 704.813074,269.78191 C702.828171,284.299067 712.983258,297.678204 727.499376,299.670689 C742.015494,301.663174 755.399934,291.515075 757.4,277 C758.361804,270.019902 756.508476,262.94383 752.248501,257.331393 C747.988527,251.718956 741.671596,248.030866 734.69,247.08 Z M749,275.82 C748.010067,283.061852 742.754909,288.994142 735.685319,290.850291 C728.615729,292.70644 721.124169,290.120852 716.704397,284.29934 C712.284624,278.477828 711.807181,270.567025 715.494726,264.25621 C719.182272,257.945394 726.308489,254.477574 733.55,255.47 C743.434959,256.824703 750.3513,265.934575 749,275.82 L749,275.82 Z" id="Shape" fill="#A4A4A4" fill-rule="nonzero"></path>
            <path d="M509.28,267.31 C507.96,262.14 505.39,257.62 504.97,253.73 L504.97,253.85 C504.69,249.19 498.61,230.95 494.23,227.85 C490.13,227.99 482.07,238.73 482.07,246.65 C482.07,252.46 485.87,261.15 487.89,267.44 L509.24,267.44 L509.24,267.44 L509.28,267.31 Z" id="Path" fill="#E49D75" fill-rule="nonzero"></path>
            <path d="M543.06,312.21 C543.06,325.7 552.58,334.02 567.67,338.66 C567.67,357.12 570.52,357.93 570.52,369.17 C570.52,393.39 566.39,381.28 566.39,423.1 C566.39,448.32 576.95,462.04 596.39,462.04 C619.9,462.04 633.39,437.17 633.39,423.77 C633.39,406.77 616.57,377.23 615.39,352.7 C613.76,319.7 603.5,292.09 577.77,292.09 C555.79,292.09 543.06,300.27 543.06,312.21 Z" id="Path" fill="#783506" fill-rule="nonzero"></path>
            <circle id="Oval" fill="#E49D75" fill-rule="nonzero" cx="569.16" cy="341.82" r="7.8"></circle>
            <polygon id="Path" fill="#000000" fill-rule="nonzero" points="701.29 825.49 713.79 842.55 687.64 879.55 662.96 879.71 663.28 867.2 673.19 862.82 682 841.08"></polygon>
            <polyline id="Path" fill="#000000" fill-rule="nonzero" points="582.36 854.83 582.36 879.74 509.14 879.74 509.14 868.71 557.45 854.83 582.36 854.83"></polyline>
        </g>
    </g>
</svg>