<?xml version="1.0" encoding="UTF-8"?>
<svg width="861px" height="814px" viewBox="0 0 861 814" version="1.1" xmlns="http://www.w3.org/2000/svg" xmlns:xlink="http://www.w3.org/1999/xlink">
    <title>winston-files</title>
    <defs>
        <filter x="-3.3%" y="-2.4%" width="106.7%" height="104.9%" filterUnits="objectBoundingBox" id="filter-1">
            <feOffset dx="0" dy="2" in="SourceAlpha" result="shadowOffsetOuter1"></feOffset>
            <feGaussianBlur stdDeviation="2" in="shadowOffsetOuter1" result="shadowBlurOuter1"></feGaussianBlur>
            <feColorMatrix values="0 0 0 0 0   0 0 0 0 0   0 0 0 0 0  0 0 0 0.5 0" type="matrix" in="shadowBlurOuter1" result="shadowMatrixOuter1"></feColorMatrix>
            <feMerge>
                <feMergeNode in="shadowMatrixOuter1"></feMergeNode>
                <feMergeNode in="SourceGraphic"></feMergeNode>
            </feMerge>
        </filter>
    </defs>
    <g id="Page-1" stroke="none" stroke-width="1" fill="none" fill-rule="evenodd">
        <g id="winston-files">
            <path d="M150.117458,663.163726 C77.5220638,610.321533 26.6559032,522.90968 18.2605175,434.510123 C9.86513176,346.110566 44.4343671,256.229452 91.349758,172.768418 C138.758995,89.8012358 198.514388,12.760281 269.628243,1.40167866 C341.235945,-9.46307138 424.20211,44.8606788 486.426734,94.2459062 C548.651357,143.631134 590.628286,187.583986 654.828295,244.87085 C719.028303,302.157714 804.957545,372.778589 807.920623,441.424055 C810.8837,509.575669 730.386766,576.245726 650.877525,628.100215 C570.874437,679.460851 491.859042,716.499772 404.942107,725.882965 C317.531327,734.772306 223.206699,716.00592 150.117458,663.163726 Z" id="Path-3" fill="#69D5D7" fill-rule="nonzero" transform="translate(412.500000, 364.000000) scale(-1, 1) translate(-412.500000, -364.000000) "></path>
            <g id="Winston-Logo" transform="translate(251.000000, 311.000000)" filter="url(#filter-1)">
                <rect id="Rectangle" stroke="#DB615E" fill="#DB615E" x="51.1131148" y="389.819048" width="47.2590164" height="102.504762" rx="11"></rect>
                <path d="M48.6505547,383.929473 L56.0793702,383.935476 C58.9781863,383.93821 61.6024903,385.114494 63.5027791,387.014783 C65.4030679,388.915071 66.5793523,391.539375 66.5820868,394.437822 L66.5820868,394.437822 L66.5996849,480.654468 C66.6024185,483.553599 65.4290141,486.17853 63.5301699,488.078925 C61.6309493,489.979697 59.0060164,491.155649 56.1068224,491.156241 L56.1068224,491.156241 L48.6780069,491.150239 C45.7791907,491.147504 43.1548867,489.97122 41.2545979,488.070932 C39.3543091,486.170643 38.1780248,483.546339 38.1752902,480.647893 L38.1752902,480.647893 L38.1576922,394.431246 C38.1549586,391.532115 39.328363,388.907184 41.2272071,387.006789 C43.1264278,385.106017 45.7513607,383.930065 48.6505547,383.929473 L48.6505547,383.929473 Z" id="Rectangle" stroke="#DB615E" fill="#DB615E" transform="translate(52.378689, 437.542857) rotate(-17.000000) translate(-52.378689, -437.542857) "></path>
                <rect id="Rectangle" stroke="#DB615E" fill="#DB615E" transform="translate(283.080328, 441.071429) scale(-1, -1) translate(-283.080328, -441.071429) " x="259.45082" y="389.819048" width="47.2590164" height="102.504762" rx="11"></rect>
                <path d="M301.716128,383.929473 L309.144944,383.935476 C312.04376,383.93821 314.668064,385.114494 316.568353,387.014783 C318.468642,388.915071 319.644926,391.539375 319.647661,394.437822 L319.647661,394.437822 L319.665259,480.654468 C319.667992,483.553599 318.494588,486.17853 316.595744,488.078925 C314.696523,489.979697 312.07159,491.155649 309.172396,491.156241 L309.172396,491.156241 L301.743581,491.150239 C298.844764,491.147504 296.22046,489.97122 294.320172,488.070932 C292.419883,486.170643 291.243599,483.546339 291.240864,480.647893 L291.240864,480.647893 L291.223266,394.431246 C291.220532,391.532115 292.393937,388.907184 294.292781,387.006789 C296.192002,385.106017 298.816934,383.930065 301.716128,383.929473 L301.716128,383.929473 Z" id="Rectangle" stroke="#DB615E" fill="#DB615E" transform="translate(305.444262, 437.542857) scale(-1, 1) rotate(-17.000000) translate(-305.444262, -437.542857) "></path>
                <ellipse id="Oval" stroke="#F2BA35" fill="#F2BA35" cx="178.911475" cy="88.2142857" rx="87.7786885" ry="87.7142857"></ellipse>
                <ellipse id="Oval" stroke="#FEC844" fill="#FEC844" cx="180.088525" cy="88.2142857" rx="68.9459016" ry="68.8952381"></ellipse>
                <ellipse id="Oval" stroke="#E88582" fill="#E88582" cx="179.5" cy="316.395238" rx="179" ry="166.519048"></ellipse>
                <ellipse id="Oval" stroke="#DB615E" fill="#DB615E" cx="180.088525" cy="344.62381" rx="68.9459016" ry="51.252381"></ellipse>
                <path d="M103.635775,165.087943 C151.544013,144.30552 206.85865,144.30552 254.766888,165.087943 L254.766888,165.087943 L252.35229,169.908058 C205.974715,149.786867 152.427948,149.786867 106.050372,169.908058 L106.050372,169.908058 Z" id="Path" stroke="#DB615E" stroke-width="0.25" fill="#DB615E"></path>
                <ellipse id="Oval" stroke="#000000" fill="#000000" cx="133.595082" cy="243.471429" rx="14.2131148" ry="32.4333333"></ellipse>
                <ellipse id="Oval" stroke="#000000" fill="#000000" cx="224.227869" cy="243.471429" rx="14.2131148" ry="32.4333333"></ellipse>
                <ellipse id="Oval" stroke="#000000" fill="#000000" cx="154.781967" cy="341.095238" rx="5.97377049" ry="11.2619048"></ellipse>
                <ellipse id="Oval" stroke="#000000" fill="#000000" cx="210.103279" cy="341.095238" rx="5.97377049" ry="11.2619048"></ellipse>
                <path d="M21.7216383,236.613965 C13.7899129,202.881266 7.4170547,176.43074 20.3140485,143.044088 C30.9353379,115.548588 85.2962299,169.146609 89.7244672,176.85668 C91.476186,179.906624 84.5961875,181.773234 81.5476501,183.529985 C74.3665524,187.668168 65.5501331,189.112585 59.205361,194.443635 C46.1604974,205.404284 35.8797277,219.281765 24.2169111,231.700831 L21.7216383,236.613965 Z" id="Path" stroke="#E88582" fill="#E88582"></path>
                <path d="M277.14131,236.613965 C269.209585,202.881266 262.836727,176.43074 275.733721,143.044088 C286.35501,115.548588 340.715902,169.146609 345.144139,176.85668 C346.895858,179.906624 340.01586,181.773234 336.967322,183.529985 C329.786225,187.668168 320.969805,189.112585 314.625033,194.443635 C301.58017,205.404284 291.2994,219.281765 279.636583,231.700831 L277.14131,236.613965 Z" id="Path" stroke="#E88582" fill="#E88582" transform="translate(306.896339, 185.937935) scale(-1, 1) translate(-306.896339, -185.937935) "></path>
            </g>
            <path d="M786.123264,184 L577.876736,184 C566.331597,184 557,193.331597 557,204.833333 L557,357.611111 C557,369.112847 566.331597,378.444444 577.876736,378.444444 L786.123264,378.444444 C797.668403,378.444444 807,369.112847 807,357.611111 L807,204.833333 C807,193.331597 797.668403,184 786.123264,184 Z M580.480903,204.833333 L783.519097,204.833333 C784.951389,204.833333 786.123264,206.005208 786.123264,207.4375 L786.123264,225.666667 L577.876736,225.666667 L577.876736,207.4375 C577.876736,206.005208 579.048611,204.833333 580.480903,204.833333 Z M783.519097,357.611111 L580.480903,357.611111 C579.048611,357.611111 577.876736,356.439236 577.876736,355.006944 L577.876736,281.222222 L786.123264,281.222222 L786.123264,355.006944 C786.123264,356.439236 784.951389,357.611111 783.519097,357.611111 Z M640.333333,314.208333 L640.333333,331.569444 C640.333333,334.434028 637.989583,336.777778 635.125,336.777778 L603.875,336.777778 C601.010417,336.777778 598.666667,334.434028 598.666667,331.569444 L598.666667,314.208333 C598.666667,311.34375 601.010417,309 603.875,309 L635.125,309 C637.989583,309 640.333333,311.34375 640.333333,314.208333 Z M723.666667,314.208333 L723.666667,331.569444 C723.666667,334.434028 721.322917,336.777778 718.458333,336.777778 L659.430556,336.777778 C656.565972,336.777778 654.222222,334.434028 654.222222,331.569444 L654.222222,314.208333 C654.222222,311.34375 656.565972,309 659.430556,309 L718.458333,309 C721.322917,309 723.666667,311.34375 723.666667,314.208333 Z" id="Shape" fill="#252525" fill-rule="nonzero"></path>
            <path d="M180.263158,496.196881 L139.376218,455.309942 C134.990253,450.923977 129.044834,448.438596 122.85575,448.438596 L23.3918129,448.438596 C10.4775828,448.487329 0,458.964912 0,471.879142 L0,674.608187 C0,687.522417 10.4775828,698 23.3918129,698 L163.74269,698 C176.65692,698 187.134503,687.522417 187.134503,674.608187 L187.134503,512.766082 C187.134503,506.576998 184.649123,500.582846 180.263158,496.196881 Z M161.842105,510.865497 L124.756335,510.865497 L124.756335,473.779727 L161.842105,510.865497 Z M23.3918129,674.608187 L23.3918129,471.879142 L101.364522,471.879142 L101.364522,522.561404 C101.364522,529.042885 106.578947,534.25731 113.060429,534.25731 L163.74269,534.25731 L163.74269,674.608187 L23.3918129,674.608187 Z" id="Shape" fill="#252525" fill-rule="nonzero"></path>
            <path d="M814.125,569.09375 L814.125,582.765625 C814.125,585.988281 811.488281,588.625 808.265625,588.625 L726.234375,588.625 C723.011719,588.625 720.375,585.988281 720.375,582.765625 L720.375,569.09375 C720.375,565.871094 723.011719,563.234375 726.234375,563.234375 L808.265625,563.234375 C811.488281,563.234375 814.125,565.871094 814.125,569.09375 Z M808.265625,604.25 L726.234375,604.25 C723.011719,604.25 720.375,606.886719 720.375,610.109375 L720.375,623.78125 C720.375,627.003906 723.011719,629.640625 726.234375,629.640625 L808.265625,629.640625 C811.488281,629.640625 814.125,627.003906 814.125,623.78125 L814.125,610.109375 C814.125,606.886719 811.488281,604.25 808.265625,604.25 Z M861,512.404297 L861,674.5625 C861,687.501953 850.501953,698 837.5625,698 L696.9375,698 C683.998047,698 673.5,687.501953 673.5,674.5625 L673.5,471.4375 C673.5,458.498047 683.998047,448 696.9375,448 L796.595703,448 C802.796875,448 808.753906,450.490234 813.148438,454.884766 L854.115234,495.851562 C858.509766,500.197266 861,506.203125 861,512.404297 Z M798.5,473.341797 L798.5,510.5 L835.658203,510.5 L798.5,473.341797 Z M837.5625,674.5625 L837.5625,533.9375 L786.78125,533.9375 C780.287109,533.9375 775.0625,528.712891 775.0625,522.21875 L775.0625,471.4375 L696.9375,471.4375 L696.9375,674.5625 L837.5625,674.5625 Z" id="Shape" fill="#252525" fill-rule="nonzero"></path>
            <path d="M243.5625,198 L40.4375,198 C27.4931641,198 17,208.493164 17,221.4375 L17,362.0625 C17,375.006836 27.4931641,385.5 40.4375,385.5 L243.5625,385.5 C256.506836,385.5 267,375.006836 267,362.0625 L267,221.4375 C267,208.493164 256.506836,198 243.5625,198 Z M243.5625,221.4375 L243.5625,241.361816 C232.614258,250.277344 215.160156,264.140625 177.846191,293.358887 C169.623047,299.827148 153.333984,315.366699 142,315.185547 C130.667969,315.368652 114.373535,299.824707 106.153809,293.358887 C68.8457031,264.14502 51.387207,250.278809 40.4375,241.361816 L40.4375,221.4375 L243.5625,221.4375 Z M40.4375,362.0625 L40.4375,271.436523 C51.6259766,280.348145 67.4926758,292.853516 91.6767578,311.791016 C102.349121,320.191895 121.039062,338.737305 142,338.624512 C162.85791,338.737305 181.311035,320.460938 192.318848,311.794922 C216.502441,292.85791 232.373535,280.349121 243.5625,271.436523 L243.5625,362.0625 L40.4375,362.0625 Z" id="Shape" fill="#252525" fill-rule="nonzero"></path>
            <path d="M516.166667,107 L307.833333,107 C296.331597,107 287,116.331597 287,127.833333 L287,280.611111 C287,292.112847 296.331597,301.444444 307.833333,301.444444 L516.166667,301.444444 C527.668403,301.444444 537,292.112847 537,280.611111 L537,127.833333 C537,116.331597 527.668403,107 516.166667,107 Z M516.166667,280.611111 L307.833333,280.611111 L307.833333,127.833333 L516.166667,127.833333 L516.166667,280.611111 Z M377.277778,204.222222 C392.598958,204.222222 405.055556,191.765625 405.055556,176.444444 C405.055556,161.123264 392.598958,148.666667 377.277778,148.666667 C361.956597,148.666667 349.5,161.123264 349.5,176.444444 C349.5,191.765625 361.956597,204.222222 377.277778,204.222222 Z M338.388889,259.777778 L416.166667,259.777778 C421.548611,259.777778 425.888889,256.045139 425.888889,251.444444 L425.888889,243.111111 C425.888889,229.309028 412.824653,218.111111 396.722222,218.111111 C392.034722,218.111111 388.605903,221.583333 377.277778,221.583333 C365.602431,221.583333 362.78125,218.111111 357.833333,218.111111 C341.730903,218.111111 328.666667,229.309028 328.666667,243.111111 L328.666667,251.444444 C328.666667,256.045139 333.006944,259.777778 338.388889,259.777778 Z M443.25,232 L491.861111,232 C493.770833,232 495.333333,230.4375 495.333333,228.527778 L495.333333,221.583333 C495.333333,219.673611 493.770833,218.111111 491.861111,218.111111 L443.25,218.111111 C441.340278,218.111111 439.777778,219.673611 439.777778,221.583333 L439.777778,228.527778 C439.777778,230.4375 441.340278,232 443.25,232 Z M443.25,204.222222 L491.861111,204.222222 C493.770833,204.222222 495.333333,202.659722 495.333333,200.75 L495.333333,193.805556 C495.333333,191.895833 493.770833,190.333333 491.861111,190.333333 L443.25,190.333333 C441.340278,190.333333 439.777778,191.895833 439.777778,193.805556 L439.777778,200.75 C439.777778,202.659722 441.340278,204.222222 443.25,204.222222 Z M443.25,176.444444 L491.861111,176.444444 C493.770833,176.444444 495.333333,174.881944 495.333333,172.972222 L495.333333,166.027778 C495.333333,164.118056 493.770833,162.555556 491.861111,162.555556 L443.25,162.555556 C441.340278,162.555556 439.777778,164.118056 439.777778,166.027778 L439.777778,172.972222 C439.777778,174.881944 441.340278,176.444444 443.25,176.444444 Z" id="Shape" fill="#252525" fill-rule="nonzero"></path>
        </g>
    </g>
</svg>