<?xml version="1.0" standalone="no"?>
<!DOCTYPE svg PUBLIC "-//W3C//DTD SVG 20010904//EN"
 "http://www.w3.org/TR/2001/REC-SVG-20010904/DTD/svg10.dtd">
<svg version="1.0" xmlns="http://www.w3.org/2000/svg"
 width="700.000000pt" height="700.000000pt" viewBox="0 0 700.000000 700.000000"
 preserveAspectRatio="xMidYMid meet">
<metadata>
Created by potrace 1.14, written by Peter Selinger 2001-2017
</metadata>
<g transform="translate(0.000000,700.000000) scale(0.100000,-0.100000)"
fill="#000000" stroke="none">
<path d="M0 3500 l0 -3500 3500 0 3500 0 0 3500 0 3500 -3500 0 -3500 0 0
-3500z m3700 1945 c251 -41 474 -157 661 -344 235 -235 359 -533 359 -860 0
-409 -204 -791 -542 -1018 -612 -408 -1443 -189 -1773 467 -133 265 -165 562
-91 852 104 410 412 735 818 863 174 55 382 70 568 40z m-1550 -2930 c116 -41
154 -161 73 -225 -32 -25 -124 -53 -146 -44 -30 11 -18 24 21 24 44 0 97 30
107 60 11 35 -3 86 -32 114 -62 63 -252 74 -400 23 -133 -46 -223 -128 -223
-204 0 -67 58 -98 260 -138 156 -31 205 -50 243 -94 57 -69 24 -197 -75 -286
-103 -92 -255 -142 -463 -152 l-130 -6 47 -16 c27 -9 47 -20 45 -26 -4 -17
-49 -5 -117 30 -36 19 -92 42 -125 52 -77 22 -134 77 -164 159 -25 66 -22 108
11 162 36 59 113 79 137 34 5 -9 17 -69 26 -132 18 -123 39 -176 81 -209 23
-18 40 -21 134 -21 183 0 349 57 445 154 89 89 107 158 55 206 -31 29 -88 47
-281 90 -116 25 -171 58 -200 117 -17 36 -19 47 -9 83 29 108 188 215 380 256
81 17 239 11 300 -11z m2706 -160 c8 -20 -20 -63 -152 -239 -62 -82 -122 -167
-134 -189 l-23 -40 94 67 c200 142 279 178 309 141 11 -13 8 -23 -18 -58 -141
-190 -189 -284 -159 -314 12 -13 19 -13 48 0 52 22 115 82 139 132 34 71 151
189 222 224 64 33 97 38 128 21 55 -30 44 -97 -25 -158 -58 -51 -168 -104
-226 -110 -38 -3 -48 -9 -53 -26 -11 -40 -6 -89 11 -108 81 -90 376 160 513
436 36 72 50 92 69 94 21 3 40 -11 41 -29 0 -4 -16 -31 -35 -60 -20 -29 -34
-58 -31 -66 8 -19 50 -16 100 9 38 18 47 19 61 8 21 -17 18 -23 -58 -121 -118
-154 -141 -235 -77 -269 48 -25 196 53 283 150 25 28 48 50 51 50 44 0 -126
-164 -216 -209 -82 -41 -129 -41 -170 0 -30 29 -30 32 -26 103 4 60 12 85 45
149 27 52 36 77 27 77 -8 0 -23 9 -35 21 -25 25 -15 33 -118 -98 -134 -171
-296 -293 -388 -293 -64 0 -123 47 -123 98 0 22 -3 21 -57 -21 -32 -24 -66
-47 -76 -51 -31 -10 -67 5 -82 35 -31 59 -14 120 74 263 49 79 43 79 -63 6
-79 -55 -212 -187 -264 -263 -36 -54 -57 -66 -78 -45 -13 12 -11 20 11 62 32
61 32 64 -8 30 -125 -110 -245 -140 -311 -79 -21 20 -26 33 -26 74 l0 50 -62
-47 c-93 -70 -158 -96 -245 -97 -92 0 -108 13 -107 88 l0 52 -51 -50 c-28 -28
-70 -59 -93 -69 -36 -16 -46 -17 -72 -6 -37 15 -63 62 -58 101 l4 28 -48 -42
c-72 -63 -138 -107 -160 -107 -24 0 -70 24 -88 45 -7 9 -13 36 -12 61 l0 44
-49 -44 c-64 -58 -160 -106 -211 -106 -31 0 -46 7 -70 30 -29 29 -30 34 -26
100 3 57 11 83 45 150 28 55 37 80 27 80 -8 0 -23 9 -34 20 -11 11 -22 20 -24
20 -2 0 -36 -43 -75 -95 -136 -178 -314 -315 -410 -315 -41 0 -94 29 -111 61
-31 56 12 158 111 263 74 79 166 136 221 136 39 0 82 -43 74 -73 -3 -12 -6
-27 -6 -33 0 -20 -41 -54 -66 -54 -33 0 -41 25 -20 62 35 58 -2 49 -101 -26
-119 -90 -195 -243 -144 -290 30 -27 97 -17 167 25 113 68 290 267 343 386 52
115 54 118 86 118 42 0 42 -22 0 -85 -20 -29 -34 -59 -31 -67 8 -19 51 -16 97
8 42 21 66 20 75 -5 3 -8 -24 -51 -64 -103 -84 -107 -112 -159 -112 -212 0
-88 84 -88 209 0 38 26 93 77 122 111 162 190 277 272 375 266 39 -2 51 -7 59
-25 5 -12 20 -23 34 -25 51 -6 47 -28 -24 -137 -101 -156 -123 -214 -91 -240
44 -36 201 109 279 257 l48 92 -36 0 c-34 0 -36 2 -33 28 3 26 6 27 61 30 58
3 58 3 104 62 52 67 61 73 93 57 34 -17 34 -29 -1 -73 l-31 -39 149 -5 c81 -3
140 -8 130 -12 -9 -4 -86 -17 -170 -28 -83 -12 -160 -23 -169 -26 -36 -11
-178 -258 -178 -311 0 -57 71 -69 169 -29 81 33 133 71 221 162 190 198 231
227 312 228 62 1 82 -20 75 -77 -7 -48 -32 -77 -68 -77 -39 0 -43 13 -19 60
23 45 16 49 -38 21 -99 -51 -212 -190 -220 -271 -6 -64 14 -84 80 -78 102 10
255 146 353 313 162 277 287 422 311 360z"/>
<path d="M3303 5355 c-114 -20 -230 -61 -335 -118 -408 -219 -634 -637 -596
-1102 22 -270 136 -507 338 -705 218 -214 480 -320 788 -320 203 0 345 34 521
125 498 257 729 833 550 1370 -58 173 -150 316 -291 451 -169 161 -361 259
-587 298 -111 19 -287 19 -388 1z m371 -617 c13 -49 20 -51 67 -26 37 19 59
23 134 23 78 0 97 -4 147 -28 191 -94 243 -350 102 -506 -56 -62 -94 -86 -169
-105 -32 -9 -60 -17 -61 -19 -2 -2 0 -18 5 -35 7 -22 6 -34 -2 -39 -26 -16
-883 -291 -889 -285 -10 11 -220 773 -214 779 9 9 829 261 852 262 15 1 24 -7
28 -21z"/>
<path d="M3325 4634 c-170 -53 -353 -109 -407 -125 l-96 -30 19 -67 c11 -37
56 -200 101 -362 45 -162 83 -297 84 -299 2 -1 192 59 424 135 421 138 421
138 415 163 -7 29 -21 41 -50 41 -29 0 -115 42 -154 76 -25 21 -42 28 -68 25
-20 -1 -47 5 -68 18 l-35 20 -5 -22 c-2 -12 -8 -42 -12 -67 -7 -36 -13 -46
-31 -48 -33 -5 -85 31 -129 89 l-38 50 -5 -80 c-9 -127 -37 -139 -130 -55 -23
21 -78 85 -122 142 -65 83 -79 108 -71 121 17 27 35 18 81 -39 116 -145 148
-183 165 -191 15 -9 17 -3 17 69 0 85 8 102 51 102 21 0 41 -16 90 -71 l63
-72 16 73 c20 96 35 106 89 57 60 -54 74 -50 49 16 -41 106 -11 249 70 335 27
29 29 35 19 62 -6 17 -14 30 -17 29 -3 0 -144 -43 -315 -95z"/>
<path d="M3770 4693 c-63 -23 -152 -114 -173 -177 -27 -80 -22 -162 13 -234
55 -110 145 -166 265 -166 250 1 388 280 237 479 -55 72 -126 108 -221 112
-52 2 -90 -3 -121 -14z m228 -32 c95 -48 144 -126 150 -237 5 -82 -14 -136
-67 -196 -137 -157 -408 -94 -467 108 -43 150 38 293 196 345 42 14 142 3 188
-20z"/>
<path d="M3796 4646 c-100 -37 -161 -127 -161 -236 1 -100 59 -188 151 -226
79 -33 214 -4 271 57 58 64 81 188 47 267 -19 47 -68 98 -118 124 -51 26 -139
33 -190 14z m147 -150 c36 -28 12 -56 -27 -31 -19 13 -29 14 -45 5 -30 -16
-26 -30 9 -30 20 0 30 -5 30 -15 0 -11 -11 -15 -40 -15 -50 0 -53 -18 -3 -22
50 -4 55 -26 7 -30 -37 -3 -37 -4 -19 -21 18 -18 29 -18 83 -2 38 12 27 -24
-13 -41 -30 -12 -40 -12 -67 -1 -18 8 -39 26 -47 40 -8 15 -20 27 -28 27 -7 0
-13 7 -13 15 0 8 7 15 15 15 8 0 15 4 15 9 0 5 -7 11 -15 15 -17 6 -20 26 -4
26 6 0 25 16 43 35 36 38 85 47 119 21z"/>
<path d="M1120 1949 c-16 -29 -14 -120 3 -162 24 -56 107 -137 141 -137 2 0
-11 30 -30 68 -21 40 -42 103 -52 157 -19 95 -39 119 -62 74z"/>
<path d="M3394 2065 c-63 -32 -201 -159 -242 -222 -56 -89 -51 -161 10 -149
41 8 109 59 160 120 70 82 188 250 185 261 -7 20 -63 15 -113 -10z"/>
<path d="M5231 2053 c-37 -19 -162 -136 -180 -170 -11 -21 -9 -23 11 -23 33 0
138 52 182 90 90 80 82 150 -13 103z"/>
</g>
</svg>
